<svg xmlns="http://www.w3.org/2000/svg" version="1.1" xmlns:xlink="http://www.w3.org/1999/xlink" xmlns:svgjs="http://svgjs.dev/svgjs" width="2000" height="2000" viewBox="0 0 2000 2000"><g transform="matrix(1,0,0,1,-0.9999999999998863,-0.9999999999998863)"><svg viewBox="0 0 280 280" data-background-color="#f9f9f9" preserveAspectRatio="xMidYMid meet" height="2000" width="2000" xmlns="http://www.w3.org/2000/svg" xmlns:xlink="http://www.w3.org/1999/xlink"><g id="tight-bounds" transform="matrix(1,0,0,1,0.13999999999998636,0.13999999999998636)"><svg viewBox="0 0 279.72 279.72" height="279.72" width="279.72"><g><svg viewBox="0 0 279.72 279.72" height="279.72" width="279.72"><g><svg viewBox="0 0 279.72 279.72" height="279.72" width="279.72"><g id="textblocktransform"><svg viewBox="0 0 279.72 279.72" height="279.72" width="279.72" id="textblock"><g><svg viewBox="0 0 279.72 279.72" height="279.72" width="279.72"><g transform="matrix(1,0,0,1,81.45957909974032,73.92936372216631)"><svg viewBox="0 0 116.8008418005194 131.8612725556674" height="131.8612725556674" width="116.8008418005194"><g id="icon-0"><svg xmlns="http://www.w3.org/2000/svg" xmlns:xlink="http://www.w3.org/1999/xlink" version="1.1" x="0" y="0" viewBox="5.277999999999986 1.8319999999999885 53.44300000000004 60.33400000000002" enable-background="new 0 0 64 64" xml:space="preserve" height="131.8612725556674" width="116.8008418005194" class="icon-xg-0" data-fill-palette-color="accent" id="xg-0"><path d="M57.225 39.539l-0.056 0.004c-0.525 0.042-1.344-0.067-1.637-0.488-0.198-0.285-0.271-0.896 0.035-1.155 0.213-0.181 0.398-0.185 0.656-0.189 0.055-0.001 0.11-0.002 0.169-0.005l0.159-0.008-0.329-2.007-1.914-2.313c-0.2-0.324-0.356-0.549-0.471-0.713-0.305-0.438-0.305-0.438-0.13-1.093 0.04-0.15 0.089-0.332 0.145-0.556 0.145-0.585-0.171-0.939-0.449-1.253-0.188-0.21-0.363-0.408-0.393-0.658-0.016-0.14 0-0.289 0.017-0.447 0.024-0.229 0.049-0.466-0.021-0.695-0.111-0.361-2.06-1.807-2.375-1.948-0.354-0.158-0.698-0.235-1.053-0.235-0.44 0-0.826 0.121-1.167 0.229-0.288 0.09-0.56 0.175-0.82 0.175-0.336 0-0.802-0.124-1.425-1.097l-3.569-5.56c-0.214-0.516-0.464-1.031-0.729-1.576-0.578-1.188-1.177-2.418-1.354-3.635-0.18-1.221-0.82-1.683-1.499-2.172-0.363-0.263-0.739-0.534-1.064-0.941-0.259-0.325-0.314-0.841-0.368-1.339-0.034-0.317-0.066-0.617-0.147-0.881-0.106-0.342-0.427-0.813-0.737-1.27-0.173-0.253-0.393-0.577-0.49-0.775 0.304 0.013 0.53 0.057 0.733 0.096 0.182 0.035 0.339 0.065 0.506 0.065 0.354 0 0.697-0.144 1.186-0.497 0.243-0.175 0.646-0.372 1.071-0.581 1.085-0.532 2.435-1.195 2.501-2.129 0.055-0.788-0.788-1.237-1.464-1.599-0.25-0.133-0.486-0.259-0.652-0.386l-0.099-0.075L39.9 1.92c-0.23 0.231-0.459 0.479-0.69 0.73-0.329 0.356-0.669 0.725-1.029 1.06-0.603 0.56-1.63 0.844-2.456 1.071l-0.289 0.08c-0.186 0.053-0.37 0.13-0.549 0.204-0.351 0.146-0.704 0.299-1.09 0.265l-0.02-0.002-3.165 0.594 1.206 2.448c-1.844 1.311-3.543 2.313-4.561 2.691-0.538 0.199-1.093 0.208-1.68 0.216-0.598 0.009-1.215 0.018-1.834 0.24-0.468 0.169-0.817 0.685-1.155 1.183-0.356 0.526-0.693 1.023-1.094 1.023-0.099 0-0.198-0.028-0.307-0.088-0.037-0.021-0.081-0.031-0.13-0.031-0.292 0-1.009 0.371-3.99 3.266l-0.044 0.043 0.001 0.062c0.019 1.062 0.043 1.765 0.303 2.796 0.063 0.248 0.154 0.489 0.243 0.723 0.108 0.282 0.22 0.574 0.282 0.887 0.252 1.263 0.219 2.324-0.099 3.156-0.091 0.236-0.211 0.517-0.344 0.824-0.634 1.47-1.501 3.483-0.805 4.608 0.345 0.557 2.157 1.06 2.705 1.2 0.033 0.127 0.085 0.185 0.145 0.237 0.004 0.008 0.018 0.059-0.023 0.315 0 0.513-0.173 0.513-0.229 0.513-0.209 0-0.538-0.215-0.778-0.372-0.249-0.162-0.385-0.247-0.503-0.247-0.622 0-0.752 0.528-0.877 1.04-0.116 0.477-0.236 0.971-0.727 1.187-1.693 0.745-2.618 2.248-3.512 3.701-0.701 1.138-1.363 2.214-2.34 2.81-0.584 0.357-2.331 1.809-2.654 2.485-0.079 0.151-1.257 1.487-1.577 1.743-0.305 0.242-0.612 0.387-0.816 0.466l-0.14 0.054 0.906 1.982c0.073 0.272 0.17 0.545 0.264 0.809 0.376 1.059 0.701 1.974-0.388 2.804L6.014 50.73l-0.395 3.143 0.173-0.013c0.451-0.032 0.858 0.021 1.291 0.078 0.34 0.045 0.691 0.091 1.063 0.091 0.602 0 1.267-0.059 1.972-0.122 0.761-0.067 1.548-0.137 2.313-0.137 1.268 0 2.191 0.194 2.897 0.606l1.037 0.717 0.067-0.022c0.571-0.19 1.018-0.206 1.427-0.206l0.424 0.002c0.275 0 0.578-0.007 0.931-0.062 0.433-0.065 0.792-0.248 1.14-0.425 0.457-0.233 0.89-0.453 1.507-0.453 0.488 0 1.157 0.675 1.804 1.326 0.724 0.73 1.407 1.42 2.021 1.42 0.437-0.001 0.755-0.333 0.973-1.018 0.01-0.031 0.02-0.058 0.027-0.078 0.079 0.182 0.178 0.591 0.253 0.905 0.233 0.976 0.394 1.573 0.733 1.573 0.371 0 0.759-0.411 1.101-0.774 0.151-0.161 0.381-0.403 0.436-0.421 0.069 0.027 0.119 0.099 0.147 0.213 0.115 0.464-0.16 1.318-0.339 1.525-0.757 0.876-1.306 1.7-0.342 2.921 0.345 0.436 0.672 0.647 1.002 0.647 0.679 0 1.167-0.879 1.731-1.896 0.646-1.163 1.377-2.48 2.462-2.48 0.085 0 0.174 0.008 0.262 0.024 0.256 0.047 0.561 0.138 0.883 0.234 0.564 0.169 1.148 0.344 1.647 0.344 0.728 0 1.113-0.386 1.147-1.146 0.258-0.058 0.504-0.087 0.733-0.087 1.049 0 1.638 0.591 2.206 1.163 0.467 0.47 0.908 0.913 1.545 0.913 0.621 0 1.342-0.432 2.267-1.358 0.293-0.293 0.682-0.493 1.058-0.687 0.775-0.399 1.577-0.812 1.137-2-0.207-0.56-0.554-0.877-0.833-1.131-0.446-0.408-0.692-0.633-0.126-1.555 0.129-0.208 0.155-0.558 0.182-0.896 0.017-0.225 0.045-0.601 0.119-0.653 0.103-0.074 0.246-0.109 0.448-0.109 0.156 0 0.327 0.021 0.51 0.041 0.2 0.023 0.408 0.047 0.617 0.047 0.426 0 0.744-0.104 1.002-0.324 0.18-0.154 0.339-0.229 0.486-0.229 0.196 0 0.378 0.131 0.587 0.284 0.275 0.199 0.588 0.427 1.033 0.426 0.211 0 0.428-0.05 0.662-0.153 0.179-0.08 0.379-0.121 0.572-0.162 0.531-0.111 1.133-0.237 1.133-1.22 0-0.275-0.032-0.53-0.064-0.776-0.082-0.639-0.146-1.143 0.365-1.7 0.327-0.354 0.737-0.649 1.173-0.962 0.482-0.346 0.98-0.703 1.396-1.17 0.266-0.299 0.517-0.449 0.745-0.449 0.261 0 0.479 0.189 0.673 0.356 0.163 0.141 0.304 0.262 0.463 0.262 0.14 0 0.253-0.092 0.337-0.271 0.228-0.484 0.486-3.449 0.486-4.053v-0.068L57.225 39.539z" fill="#ffffff" data-fill-palette-color="accent"></path></svg></g></svg></g><g id="text-0"><path d="M32.019 93.263c0.781-0.197 1.449-0.488 2.002-0.87 0.551-0.376 1.053-0.908 1.508-1.594v0l0.745 0.274c-0.519 1.176-1.109 2.663-1.769 4.46v0c-0.496 1.351-0.931 2.652-1.304 3.904v0l-0.746-0.274c0.195-0.608 0.279-1.073 0.252-1.394-0.027-0.321-0.164-0.527-0.413-0.618v0c-0.249-0.091-0.594-0.077-1.035 0.043v0l-10.263 2.445c-1.367 0.315-2.312 0.662-2.834 1.042-0.52 0.373-0.969 1.004-1.347 1.892v0l9.445 3.471c0.95 0.349 1.666 0.525 2.149 0.529 0.481 0.01 0.871-0.165 1.169-0.525 0.305-0.358 0.648-0.977 1.03-1.857v0l0.745 0.274c-0.498 1.119-1.119 2.692-1.864 4.718v0c-0.789 2.148-1.339 3.761-1.648 4.841v0l-0.746-0.274c0.279-0.917 0.418-1.611 0.418-2.081 0.003-0.462-0.18-0.848-0.552-1.158-0.371-0.31-1.031-0.639-1.98-0.988v0l-18.602-6.835c-0.95-0.349-1.666-0.525-2.149-0.53-0.477-0.002-0.867 0.173-1.17 0.525-0.299 0.36-0.639 0.98-1.019 1.861v0l-0.756-0.278c0.463-1.023 1.089-2.609 1.878-4.756v0c0.735-2.001 1.28-3.602 1.635-4.803v0l0.755 0.278c-0.279 0.917-0.422 1.61-0.427 2.078 0.001 0.47 0.184 0.856 0.551 1.157 0.371 0.31 1.031 0.639 1.981 0.988v0l8.402 3.088c0.596-1.857 0.419-3.542-0.529-5.056v0l-3.249-5.273c-1.106-1.853-2.073-2.932-2.901-3.236v0c-0.873-0.321-1.607 0.288-2.201 1.828v0l-0.756-0.278c0.601-1.399 1.167-2.822 1.699-4.269v0c0.506-1.377 0.859-2.455 1.059-3.235v0l0.755 0.278c-0.183 0.873-0.201 1.749-0.054 2.627 0.15 0.872 0.537 1.807 1.162 2.803v0l5.59 8.998z" fill="#ffffff" data-fill-palette-color="primary"></path><path d="M47.638 68.438c1.772 0.351 2.997 0.085 3.676-0.8v0l0.653 0.453c-0.674 0.83-1.517 1.976-2.53 3.438v0c-1.306 1.887-2.245 3.314-2.816 4.281v0l-0.653-0.452c0.52-0.846 0.822-1.52 0.906-2.024 0.094-0.505-0.069-0.902-0.488-1.192v0c-0.346-0.24-0.966-0.442-1.859-0.606v0l-4.902-0.917-5.526 7.979 1.685 2.826c0.599 0.96 1.172 1.629 1.719 2.008v0c0.569 0.394 1.152 0.501 1.749 0.319 0.6-0.187 1.256-0.699 1.968-1.536v0l0.653 0.452c-0.523 0.612-1.246 1.585-2.171 2.92v0c-0.928 1.34-1.555 2.317-1.882 2.933v0l-0.653-0.452c0.253-0.7 0.268-1.437 0.045-2.212-0.228-0.769-0.639-1.636-1.234-2.6v0l-11.401-18.635 0.366-0.527zM33.618 77.88l5.166-7.46-10.914-2.057z" fill="#ffffff" data-fill-palette-color="primary"></path><path d="M70.993 47.622l0.756 0.02c0.106 0.871 0.045 1.669-0.183 2.392-0.228 0.723-0.68 1.388-1.359 1.994v0c-1.664 1.49-3.361 1.65-5.089 0.483v0l-4.253-2.905c-1.27-0.859-2.348-1.234-3.234-1.124-0.881 0.115-1.858 0.652-2.931 1.612v0l-1.7 1.521 4.659 5.206c0.675 0.754 1.224 1.246 1.649 1.476 0.42 0.235 0.846 0.263 1.279 0.086 0.438-0.173 1.031-0.558 1.781-1.157v0l0.53 0.592c-0.965 0.754-2.252 1.851-3.861 3.292v0c-1.705 1.526-2.948 2.693-3.728 3.5v0l-0.53-0.592c0.677-0.679 1.126-1.226 1.346-1.642 0.22-0.406 0.239-0.833 0.057-1.281-0.182-0.448-0.61-1.048-1.285-1.802v0l-10.548-11.785c-0.675-0.754-1.224-1.246-1.649-1.476-0.425-0.23-0.851-0.259-1.279-0.086-0.438 0.173-1.031 0.558-1.78 1.157v0l-0.53-0.592c0.885-0.691 2.119-1.746 3.702-3.163v0l3.023-2.746c0.316-0.319 0.694-0.676 1.134-1.07v0c2.221-1.988 4.292-3.094 6.213-3.319 1.931-0.225 3.492 0.328 4.683 1.659v0c1.032 1.153 1.511 2.62 1.436 4.399-0.07 1.775-1.041 3.734-2.915 5.875v0c0.436-0.317 0.809-0.578 1.118-0.781v0c1.193-0.785 2.31-1.216 3.354-1.293 1.047-0.072 2.171 0.303 3.37 1.124v0l3.078 2.126c0.777 0.553 1.391 0.887 1.841 1.003 0.445 0.121 0.817 0.048 1.115-0.219v0c0.496-0.444 0.739-1.272 0.73-2.484zM46.721 40.766c-0.531 0.475-0.868 0.904-1.009 1.286-0.146 0.377-0.109 0.79 0.112 1.239 0.216 0.445 0.645 1.026 1.288 1.745v0l5.352 5.98 1.995-1.786c1.745-1.562 2.609-3.005 2.592-4.328-0.023-1.319-0.648-2.664-1.876-4.035v0c-1.277-1.427-2.594-2.17-3.951-2.231-1.353-0.056-2.854 0.654-4.503 2.13z" fill="#ffffff" data-fill-palette-color="primary"></path><path d="M93.207 34.267c1.406 1.133 2.615 1.466 3.627 0.997v0l0.369 0.704c-0.982 0.423-2.261 1.047-3.837 1.872v0c-2.033 1.065-3.526 1.894-4.48 2.486v0l-0.369-0.704c0.853-0.508 1.433-0.966 1.741-1.372 0.317-0.404 0.358-0.831 0.122-1.282v0c-0.195-0.373-0.651-0.839-1.366-1.4v0l-3.917-3.087-8.597 4.505 0.181 3.285c0.085 1.128 0.282 1.987 0.591 2.576v0c0.321 0.613 0.788 0.978 1.401 1.094 0.619 0.113 1.437-0.036 2.456-0.447v0l0.369 0.703c-0.747 0.3-1.84 0.826-3.277 1.58v0c-1.443 0.756-2.453 1.331-3.029 1.724v0l-0.368-0.703c0.549-0.502 0.904-1.148 1.065-1.938 0.155-0.786 0.193-1.745 0.114-2.877v0l-1.453-21.796 0.568-0.298zM76.406 36.127l8.038-4.212-8.713-6.886z" fill="#ffffff" data-fill-palette-color="primary"></path><path d="M119.429 5.001l0.193 0.771c-0.889 0.278-1.527 0.581-1.915 0.908-0.385 0.334-0.591 0.77-0.618 1.309-0.031 0.547 0.075 1.311 0.321 2.293v0l4.809 19.267-0.889 0.222-20.865-17.611 4.19 16.788c0.252 1.008 0.521 1.735 0.807 2.181 0.295 0.451 0.713 0.725 1.255 0.821 0.55 0.101 1.349 0.048 2.396-0.158v0l0.192 0.771c-0.949 0.153-2.276 0.442-3.982 0.868v0c-1.555 0.388-2.747 0.728-3.577 1.019v0l-0.192-0.771c0.889-0.278 1.527-0.584 1.912-0.918 0.381-0.326 0.586-0.762 0.618-1.309 0.033-0.54-0.073-1.301-0.318-2.282v0l-3.734-14.96c-0.245-0.982-0.502-1.673-0.77-2.075-0.268-0.402-0.632-0.626-1.092-0.672-0.468-0.051-1.172 0.013-2.114 0.192v0l-0.192-0.771c0.868-0.14 2.079-0.404 3.633-0.792v0c1.39-0.347 2.57-0.68 3.54-0.999v0l16.658 14.127-3.175-12.716c-0.252-1.008-0.521-1.738-0.809-2.192-0.293-0.445-0.714-0.717-1.264-0.818-0.542-0.096-1.336-0.041-2.384 0.165v0l-0.192-0.771c0.947-0.159 2.273-0.452 3.979-0.878v0c1.555-0.388 2.748-0.724 3.579-1.009z" fill="#ffffff" data-fill-palette-color="primary"></path><path d="M181.641 6.45c1.18 0.227 2.168 0.375 2.964 0.445v0l-0.152 0.79c-1.526 0.059-2.778 0.997-3.756 2.814v0l-11.985 22.357-0.31-0.06-0.32-0.061-2.943-21.525-10.118 19.013-0.32-0.062-0.31-0.059-3.574-26.282c-0.235-1.725-0.974-2.735-2.217-3.03v0l0.152-0.79c1.051 0.285 2.44 0.594 4.167 0.926v0c1.887 0.363 3.308 0.595 4.263 0.695v0l-0.152 0.79c-0.717-0.083-1.239-0.048-1.565 0.104-0.326 0.152-0.533 0.451-0.618 0.897v0c-0.081 0.42-0.061 1.088 0.061 2.003v0l2.364 18.604 7.7-14.262-0.464-3.304c-0.208-1.72-0.818-2.705-1.827-2.955v0l0.152-0.79c0.925 0.261 2.184 0.544 3.777 0.851v0c2.254 0.433 3.938 0.716 5.054 0.847v0l-0.152 0.79c-1.004-0.138-1.718-0.161-2.144-0.07-0.427 0.098-0.693 0.42-0.798 0.967v0c-0.091 0.473-0.082 1.125 0.029 1.955v0l2.292 18.548 7.75-14.252c0.66-1.201 1.07-2.221 1.232-3.061v0c0.165-0.86 0.022-1.517-0.43-1.97-0.459-0.455-1.272-0.808-2.441-1.061v0l0.152-0.79c1.478 0.367 2.974 0.696 4.487 0.988z" fill="#ffffff" data-fill-palette-color="primary"></path><path d="M200.834 41.542c-0.085 1.804 0.36 2.976 1.335 3.516v0l-0.35 0.713c-0.921-0.543-2.179-1.207-3.776-1.992v0c-2.059-1.012-3.61-1.729-4.651-2.15v0l0.35-0.713c0.914 0.388 1.625 0.587 2.136 0.596 0.513 0.018 0.882-0.202 1.107-0.659v0c0.186-0.378 0.294-1.021 0.324-1.929v0l0.18-4.983-8.711-4.281-2.545 2.085c-0.86 0.735-1.437 1.4-1.731 1.997v0c-0.305 0.622-0.324 1.214-0.056 1.777 0.274 0.566 0.878 1.139 1.811 1.718v0l-0.35 0.713c-0.683-0.426-1.753-0.998-3.209-1.713v0c-1.462-0.719-2.522-1.194-3.18-1.427v0l0.35-0.713c0.73 0.147 1.461 0.052 2.194-0.283 0.726-0.339 1.523-0.874 2.389-1.606v0l16.738-14.038 0.575 0.283zM189.417 29.077l8.143 4.002 0.416-11.098z" fill="#ffffff" data-fill-palette-color="primary"></path><path d="M241.266 46.777l-0.513 0.607c-0.772-0.581-1.376-0.949-1.813-1.105-0.438-0.165-0.866-0.127-1.284 0.116-0.413 0.247-0.946 0.756-1.598 1.529v0l-10.206 12.082c-0.653 0.773-1.066 1.383-1.241 1.832-0.169 0.453-0.135 0.881 0.101 1.285 0.227 0.405 0.691 0.939 1.393 1.602v0l-0.513 0.607c-0.803-0.785-2.081-1.918-3.834-3.399v0c-1.623-1.371-2.941-2.431-3.954-3.179v0l0.513-0.607c0.766 0.576 1.371 0.945 1.813 1.105 0.438 0.165 0.863 0.125 1.276-0.122 0.418-0.242 0.953-0.75 1.606-1.523v0l5.133-6.076-9.313-7.866-5.132 6.076c-0.653 0.773-1.064 1.386-1.233 1.838-0.174 0.448-0.143 0.874 0.093 1.278 0.232 0.409 0.696 0.944 1.392 1.603v0l-0.512 0.607c-0.881-0.851-2.146-1.973-3.796-3.366v0c-1.748-1.476-3.076-2.545-3.984-3.206v0l0.513-0.607c0.766 0.576 1.371 0.945 1.813 1.105 0.433 0.161 0.858 0.12 1.276-0.122 0.418-0.242 0.953-0.75 1.606-1.522v0l10.206-12.082c0.653-0.773 1.064-1.386 1.233-1.839 0.169-0.453 0.138-0.879-0.093-1.278-0.232-0.409-0.696-0.944-1.393-1.603v0l0.513-0.607c0.808 0.78 2.085 1.908 3.833 3.385v0c1.629 1.376 2.944 2.438 3.947 3.187v0l-0.513 0.607c-0.766-0.576-1.371-0.945-1.813-1.105-0.438-0.165-0.863-0.125-1.276 0.122-0.418 0.242-0.953 0.75-1.606 1.523v0l-4.561 5.399 9.312 7.866 4.561-5.399c0.653-0.773 1.064-1.386 1.233-1.838 0.174-0.448 0.143-0.874-0.093-1.278-0.232-0.409-0.696-0.944-1.392-1.603v0l0.512-0.607c0.891 0.85 2.158 1.97 3.802 3.358v0c1.753 1.481 3.082 2.554 3.986 3.22z" fill="#ffffff" data-fill-palette-color="primary"></path><path d="M255.22 64.701l-0.649 0.458c-0.597-0.75-1.089-1.259-1.477-1.524-0.382-0.27-0.804-0.338-1.266-0.203-0.465 0.13-1.111 0.486-1.937 1.071v0l-12.913 9.131c-0.826 0.584-1.378 1.074-1.655 1.47-0.281 0.39-0.353 0.807-0.215 1.249 0.133 0.447 0.476 1.061 1.029 1.842v0l1.452 2.054c1.062 1.502 2.336 2.356 3.82 2.562 1.484 0.206 3.321-0.336 5.511-1.626v0l0.535 0.756c-0.723 0.412-1.639 1.01-2.748 1.794v0c-1.131 0.8-2.361 1.782-3.692 2.947v0c-0.933-1.461-2.583-3.865-4.951-7.213v0c-2.846-4.025-5.031-7.044-6.556-9.06v0l0.649-0.458c0.597 0.75 1.089 1.259 1.477 1.524 0.378 0.265 0.8 0.332 1.266 0.203 0.465-0.13 1.111-0.486 1.937-1.071v0l12.914-9.131c0.826-0.584 1.378-1.074 1.655-1.47 0.277-0.396 0.354-0.816 0.231-1.261-0.122-0.454-0.437-1.088-0.945-1.901v0l0.648-0.458c0.586 0.958 1.539 2.371 2.86 4.238v0c1.231 1.741 2.237 3.099 3.02 4.077z" fill="#ffffff" data-fill-palette-color="primary"></path><path d="M254.096 109.94c-1.284 1.27-1.751 2.434-1.399 3.491v0l-0.741 0.287c-0.309-1.023-0.786-2.364-1.428-4.022v0c-0.83-2.14-1.485-3.717-1.966-4.732v0l0.74-0.287c0.409 0.905 0.798 1.533 1.168 1.884 0.366 0.361 0.786 0.449 1.261 0.265v0c0.392-0.152 0.907-0.552 1.544-1.199v0l3.508-3.545-3.509-9.049-3.285-0.19c-1.131-0.042-2.006 0.057-2.626 0.297v0c-0.646 0.25-1.061 0.673-1.245 1.27-0.182 0.602-0.125 1.432 0.169 2.49v0l-0.741 0.287c-0.214-0.776-0.614-1.921-1.2-3.434v0c-0.589-1.519-1.047-2.587-1.374-3.203v0l0.741-0.287c0.437 0.602 1.039 1.028 1.806 1.277 0.764 0.243 1.712 0.388 2.845 0.437v0l21.822 1.008 0.232 0.598zM254.138 93.036l3.281 8.461 7.822-7.884z" fill="#ffffff" data-fill-palette-color="primary"></path><path d="M0.859 144.746c0-5.969 4.839-10.807 10.808-10.808 5.969 0 10.807 4.839 10.807 10.808 0 5.969-4.839 10.807-10.807 10.807-5.969 0-10.807-4.839-10.808-10.807z" fill="#ffffff" data-fill-palette-color="primary"></path><path d="M257.246 144.746c0-5.969 4.839-10.807 10.807-10.808 5.969 0 10.807 4.839 10.808 10.808 0 5.969-4.839 10.807-10.808 10.807-5.969 0-10.807-4.839-10.807-10.807z" fill="#ffffff" data-fill-palette-color="primary"></path></g><g id="text-1"><path d="M25.451 181.653c0.709 2.247 0.68 4.107-0.087 5.581-0.773 1.476-2.235 2.552-4.385 3.23v0c-1.386 0.437-2.683 0.544-3.893 0.32-1.214-0.215-2.269-0.751-3.166-1.606-0.89-0.858-1.562-2.006-2.015-3.444v0l-0.327-1.104c-0.199-0.72-0.35-1.246-0.454-1.575v0c-0.329-1.042-0.597-1.826-0.806-2.352v0l0.379-0.119c0.171 0.452 0.328 0.769 0.471 0.951 0.145 0.189 0.337 0.289 0.575 0.299 0.236 0.004 0.597-0.071 1.082-0.224v0l9.45-2.981c0.486-0.153 0.824-0.299 1.016-0.438 0.196-0.147 0.295-0.339 0.299-0.575 0.012-0.232-0.041-0.582-0.16-1.049v0l0.378-0.12c0.102 0.459 0.278 1.083 0.527 1.874v0l0.531 1.616c0.298 0.853 0.492 1.425 0.585 1.716zM24.961 181.285c-0.125-0.395-0.263-0.675-0.415-0.841-0.154-0.172-0.355-0.258-0.605-0.258-0.251-0.006-0.607 0.063-1.066 0.208v0l-9.528 3.006c-0.46 0.145-0.791 0.292-0.993 0.441-0.204 0.143-0.32 0.329-0.347 0.558-0.029 0.223 0.02 0.538 0.149 0.946v0c0.425 1.347 1.006 2.331 1.743 2.953 0.729 0.617 1.615 0.932 2.658 0.945 1.039 0.021 2.287-0.198 3.744-0.658v0c1.463-0.462 2.601-1.009 3.412-1.642 0.818-0.635 1.332-1.41 1.541-2.323 0.217-0.916 0.119-2.027-0.293-3.335z" fill="#ffffff" data-fill-palette-color="secondary"></path><path d="M21.372 206.37l-0.128 0.359c-0.431-0.08-0.801-0.229-1.108-0.447-0.308-0.218-0.556-0.534-0.744-0.949v0c-0.463-1.02-0.286-1.854 0.532-2.5v0l2.015-1.597c0.604-0.475 0.945-0.932 1.023-1.369 0.077-0.438-0.033-0.984-0.33-1.64v0l-0.471-1.039-3.181 1.443c-0.464 0.21-0.781 0.399-0.952 0.566-0.173 0.161-0.251 0.36-0.232 0.598 0.016 0.232 0.111 0.572 0.285 1.022v0l-0.361 0.164c-0.215-0.573-0.546-1.351-0.993-2.334v0c-0.474-1.045-0.846-1.816-1.115-2.312v0l0.361-0.164c0.224 0.428 0.418 0.724 0.582 0.888 0.167 0.17 0.369 0.246 0.607 0.228 0.235-0.025 0.584-0.142 1.048-0.353v0l7.206-3.269c0.464-0.21 0.782-0.396 0.955-0.556 0.17-0.167 0.246-0.369 0.228-0.607-0.016-0.232-0.111-0.572-0.285-1.023v0l0.362-0.164c0.196 0.53 0.514 1.28 0.954 2.251v0l0.86 1.847c0.105 0.198 0.218 0.431 0.338 0.696v0c0.617 1.36 0.836 2.517 0.658 3.471-0.185 0.956-0.682 1.618-1.493 1.985v0c-0.705 0.32-1.475 0.33-2.312 0.031-0.839-0.305-1.631-1.064-2.375-2.277v0c0.087 0.259 0.157 0.477 0.208 0.655v0c0.199 0.685 0.236 1.284 0.11 1.795-0.119 0.509-0.466 0.987-1.039 1.433v0l-1.47 1.148c-0.382 0.292-0.633 0.537-0.752 0.733-0.129 0.193-0.151 0.382-0.067 0.567v0c0.137 0.303 0.496 0.543 1.076 0.72zM28.279 195.81c-0.149-0.328-0.303-0.552-0.462-0.673-0.162-0.128-0.364-0.17-0.606-0.128-0.244 0.036-0.586 0.154-1.025 0.353v0l-3.654 1.658 0.551 1.215c0.485 1.07 1.043 1.7 1.674 1.891 0.637 0.188 1.373 0.093 2.208-0.286v0c0.872-0.396 1.423-0.914 1.654-1.556 0.231-0.642 0.118-1.466-0.34-2.474z" fill="#ffffff" data-fill-palette-color="secondary"></path><path d="M28.809 216.769c-0.598 0.348-1.255 0.786-1.97 1.312v0c-0.402-0.772-1.119-2.043-2.151-3.815v0c-1.24-2.13-2.197-3.733-2.871-4.81v0l0.343-0.2c0.266 0.403 0.489 0.678 0.669 0.825 0.183 0.153 0.392 0.208 0.627 0.165 0.231-0.048 0.567-0.2 1.006-0.457v0l6.839-3.981c0.44-0.256 0.738-0.473 0.894-0.65 0.153-0.183 0.208-0.392 0.166-0.627-0.039-0.229-0.168-0.558-0.387-0.988v0l0.343-0.2c0.604 1.118 1.525 2.741 2.765 4.871v0c0.939 1.614 1.623 2.747 2.051 3.402v0c-0.737 0.327-1.381 0.651-1.932 0.972v0c-0.446 0.26-0.795 0.483-1.048 0.669v0l-0.231-0.396c0.9-0.626 1.446-1.207 1.637-1.743 0.191-0.535 0.078-1.161-0.338-1.877v0l-0.733-1.258c-0.243-0.417-0.451-0.7-0.625-0.85-0.177-0.156-0.382-0.21-0.612-0.162-0.235 0.042-0.572 0.192-1.012 0.448v0l-3.213 1.87 0.835 1.434c0.215 0.37 0.473 0.597 0.774 0.681 0.306 0.081 0.592 0.092 0.855 0.033 0.264-0.059 0.586-0.161 0.967-0.304v0l0.23 0.396c-0.408 0.19-0.843 0.42-1.306 0.69v0l-0.661 0.385c-0.446 0.26-1.068 0.669-1.865 1.228v0l-0.236-0.405c0.514-0.386 0.868-0.769 1.063-1.15 0.198-0.375 0.144-0.826-0.164-1.354v0l-0.835-1.434-3.283 1.911c-0.44 0.256-0.736 0.476-0.889 0.659-0.156 0.177-0.21 0.382-0.162 0.613 0.045 0.225 0.188 0.546 0.431 0.963v0l0.733 1.258c0.335 0.575 0.693 0.975 1.076 1.2 0.377 0.229 0.82 0.308 1.329 0.24 0.507-0.06 1.151-0.27 1.932-0.63v0l0.23 0.396c-0.331 0.146-0.755 0.369-1.271 0.67z" fill="#ffffff" data-fill-palette-color="secondary"></path><path d="M36.546 228.54c-0.449 0.784-0.516 1.409-0.201 1.878v0l-0.318 0.237c-0.288-0.454-0.698-1.038-1.23-1.751v0c-0.686-0.92-1.212-1.591-1.577-2.013v0l0.319-0.237c0.314 0.376 0.583 0.624 0.808 0.743 0.229 0.126 0.444 0.113 0.646-0.036v0c0.169-0.126 0.362-0.389 0.581-0.789v0l1.22-2.18-2.904-3.895-1.602 0.356c-0.557 0.127-0.969 0.291-1.236 0.49v0c-0.278 0.207-0.418 0.468-0.419 0.783-0.012 0.314 0.123 0.704 0.404 1.172v0l-0.319 0.238c-0.203-0.34-0.548-0.837-1.034-1.49v0c-0.487-0.653-0.85-1.106-1.09-1.36v0l0.318-0.237c0.291 0.232 0.637 0.355 1.038 0.369 0.405 0.02 0.883-0.036 1.436-0.169v0l10.652-2.428 0.188 0.253zM34.306 220.391l2.715 3.641 2.714-4.844z" fill="#ffffff" data-fill-palette-color="secondary"></path><path d="M57.016 235.894c-0.347-0.326-0.627-0.542-0.84-0.648-0.209-0.102-0.422-0.105-0.641-0.01-0.214 0.1-0.506 0.325-0.875 0.676v0l-5.74 5.447c-0.369 0.351-0.61 0.63-0.721 0.838-0.106 0.213-0.114 0.427-0.024 0.641 0.095 0.219 0.296 0.51 0.604 0.873v0l-0.288 0.273c-0.391-0.471-0.958-1.098-1.701-1.881v0c-0.785-0.827-1.387-1.431-1.804-1.812v0l0.288-0.273c0.352 0.331 0.632 0.547 0.84 0.648 0.209 0.102 0.422 0.105 0.641 0.01 0.219-0.095 0.513-0.318 0.882-0.669v0l6.36-6.036-11.286 4.071-0.218-0.229 4.759-10.919-6.197 5.882c-0.379 0.36-0.63 0.658-0.751 0.895-0.121 0.237-0.138 0.486-0.049 0.748 0.094 0.267 0.313 0.601 0.659 1.004v0l-0.289 0.273c-0.302-0.378-0.755-0.884-1.357-1.519v0c-0.551-0.581-0.994-1.018-1.328-1.31v0l0.289-0.273c0.342 0.321 0.632 0.523 0.87 0.606 0.243 0.088 0.486 0.073 0.728-0.046 0.239-0.123 0.542-0.36 0.912-0.711v0l5.592-5.307c0.369-0.351 0.61-0.63 0.721-0.838 0.106-0.213 0.112-0.429 0.017-0.648-0.09-0.214-0.292-0.505-0.604-0.873v0l0.288-0.274c0.274 0.348 0.687 0.813 1.239 1.394v0c0.439 0.463 0.844 0.86 1.215 1.192v0l-4.3 9.612 9.962-3.557 0.645 0.68c0.743 0.783 1.34 1.382 1.79 1.797v0z" fill="#ffffff" data-fill-palette-color="secondary"></path><path d="M60.506 250.939c-0.44 0.535-0.904 1.173-1.391 1.915v0c-0.645-0.584-1.76-1.527-3.343-2.829v0c-1.903-1.566-3.358-2.736-4.365-3.511v0l0.252-0.307c0.39 0.285 0.694 0.465 0.914 0.541 0.225 0.079 0.44 0.058 0.645-0.063 0.2-0.126 0.462-0.385 0.785-0.778v0l5.027-6.111c0.323-0.393 0.528-0.7 0.612-0.921 0.079-0.225 0.058-0.44-0.063-0.645-0.116-0.201-0.352-0.465-0.707-0.792v0l0.253-0.307c0.955 0.838 2.384 2.04 4.287 3.605v0c1.442 1.186 2.477 2.011 3.106 2.476v0c-0.577 0.563-1.068 1.09-1.474 1.583v0c-0.328 0.399-0.578 0.729-0.75 0.992v0l-0.354-0.291c0.626-0.9 0.936-1.635 0.929-2.203-0.007-0.568-0.331-1.116-0.97-1.642v0l-1.125-0.925c-0.372-0.306-0.666-0.499-0.881-0.58-0.22-0.085-0.431-0.064-0.631 0.062-0.205 0.121-0.47 0.379-0.793 0.771v0l-2.361 2.871 1.282 1.055c0.33 0.272 0.651 0.395 0.962 0.369 0.315-0.031 0.586-0.12 0.813-0.267 0.227-0.147 0.494-0.354 0.801-0.621v0l0.354 0.291c-0.316 0.32-0.645 0.687-0.986 1.102v0l-0.485 0.59c-0.328 0.399-0.769 0.999-1.322 1.8v0l-0.362-0.298c0.348-0.54 0.547-1.023 0.597-1.447 0.056-0.42-0.153-0.824-0.625-1.213v0l-1.282-1.054-2.413 2.934c-0.323 0.393-0.525 0.702-0.604 0.927-0.085 0.22-0.064 0.431 0.061 0.631 0.12 0.196 0.367 0.447 0.739 0.752v0l1.125 0.926c0.514 0.423 0.989 0.673 1.426 0.751 0.433 0.083 0.876 0.004 1.33-0.238 0.455-0.232 0.986-0.653 1.592-1.262v0l0.354 0.291c-0.26 0.252-0.58 0.609-0.959 1.07z" fill="#ffffff" data-fill-palette-color="secondary"></path><path d="M72.658 260.531l0.086 0.372c-0.407 0.164-0.799 0.237-1.176 0.219-0.377-0.019-0.756-0.152-1.137-0.4v0c-0.939-0.611-1.237-1.409-0.895-2.395v0l0.841-2.429c0.254-0.726 0.296-1.294 0.125-1.705-0.17-0.411-0.557-0.812-1.16-1.205v0l-0.955-0.623-1.907 2.928c-0.278 0.427-0.444 0.756-0.497 0.988-0.06 0.229-0.018 0.438 0.125 0.629 0.138 0.187 0.401 0.423 0.79 0.709v0l-0.217 0.332c-0.49-0.368-1.187-0.846-2.091-1.435v0c-0.962-0.626-1.689-1.076-2.184-1.349v0l0.217-0.333c0.419 0.24 0.741 0.386 0.967 0.436 0.232 0.054 0.444 0.009 0.635-0.134 0.185-0.147 0.416-0.434 0.694-0.86v0l4.318-6.631c0.278-0.427 0.447-0.754 0.506-0.983 0.054-0.232 0.009-0.444-0.134-0.634-0.138-0.187-0.401-0.423-0.79-0.709v0l0.217-0.333c0.45 0.342 1.122 0.803 2.015 1.385v0l1.718 1.094c0.195 0.111 0.415 0.246 0.659 0.406v0c1.252 0.815 2.058 1.673 2.421 2.572 0.358 0.906 0.295 1.731-0.191 2.477v0c-0.422 0.649-1.067 1.072-1.933 1.269-0.872 0.194-1.947-0.02-3.227-0.643v0c0.213 0.171 0.389 0.318 0.527 0.441v0c0.536 0.471 0.889 0.956 1.058 1.454 0.173 0.493 0.138 1.082-0.105 1.767v0l-0.622 1.758c-0.165 0.452-0.245 0.793-0.24 1.022-0.005 0.232 0.078 0.403 0.248 0.514v0c0.279 0.182 0.71 0.191 1.294 0.029zM72.805 247.914c-0.302-0.196-0.552-0.303-0.752-0.319-0.205-0.02-0.399 0.052-0.58 0.218-0.187 0.162-0.411 0.445-0.674 0.849v0l-2.19 3.362 1.118 0.728c0.984 0.641 1.794 0.872 2.428 0.694 0.638-0.184 1.208-0.66 1.708-1.428v0c0.522-0.802 0.708-1.536 0.558-2.201-0.15-0.665-0.689-1.299-1.616-1.903z" fill="#ffffff" data-fill-palette-color="secondary"></path><path d="M77.104 261.648c0.458 0.252 0.699 0.63 0.724 1.133v0c0.022 0.423-0.093 0.864-0.345 1.321v0c-0.321 0.583-0.759 1.024-1.311 1.324-0.556 0.306-1.215 0.431-1.976 0.376v0l0.026-0.405c0.439 0.048 0.882-0.018 1.33-0.197 0.442-0.183 0.756-0.443 0.943-0.782v0c0.075-0.137 0.125-0.268 0.148-0.395v0c-0.272 0.044-0.53-0.002-0.774-0.136v0c-0.315-0.174-0.524-0.421-0.626-0.741-0.103-0.32-0.06-0.65 0.126-0.989v0c0.174-0.315 0.427-0.521 0.759-0.617 0.335-0.102 0.661-0.066 0.976 0.108z" fill="#ffffff" data-fill-palette-color="secondary"></path><path d="M95.892 264.366c1.293 0.722 2.113 1.496 2.461 2.324 0.348 0.828 0.358 1.662 0.031 2.504v0c-0.276 0.709-0.701 1.268-1.276 1.678-0.572 0.404-1.253 0.627-2.042 0.669-0.789 0.043-1.642-0.115-2.56-0.472v0c-0.335-0.131-0.618-0.248-0.847-0.351v0c-0.787-0.336-1.564-0.652-2.329-0.95v0c-1.019-0.397-1.798-0.678-2.338-0.845v0l0.144-0.37c0.459 0.15 0.805 0.226 1.037 0.229 0.238 0.005 0.436-0.082 0.593-0.261 0.151-0.182 0.319-0.51 0.504-0.985v0l3.594-9.234c0.185-0.475 0.283-0.83 0.295-1.065 0.008-0.245-0.079-0.442-0.261-0.594-0.173-0.155-0.479-0.332-0.918-0.532v0l0.144-0.37c0.51 0.242 1.262 0.557 2.255 0.944v0l2.019 0.764c0.239 0.078 0.507 0.176 0.805 0.291v0c1.265 0.493 2.133 1.136 2.603 1.931 0.47 0.795 0.533 1.635 0.188 2.522v0c-0.281 0.721-0.757 1.279-1.427 1.673-0.677 0.392-1.564 0.546-2.661 0.462v0zM96.601 257.91c-0.386-0.15-0.691-0.218-0.915-0.203-0.228 0.006-0.421 0.109-0.58 0.31-0.162 0.192-0.331 0.512-0.505 0.961v0l-1.637 4.205 1.244 0.484c1.019 0.397 1.838 0.398 2.456 0.005 0.619-0.393 1.109-1.051 1.468-1.975v0c0.362-0.93 0.426-1.703 0.193-2.318-0.231-0.622-0.806-1.111-1.724-1.469zM91.799 270.303c2.322 0.904 3.907 0.268 4.754-1.909v0c0.382-0.981 0.409-1.826 0.081-2.537-0.334-0.713-1.077-1.294-2.229-1.742v0l-1.566-0.61-1.833 4.708c-0.175 0.449-0.265 0.793-0.27 1.031-0.012 0.236 0.065 0.433 0.229 0.592 0.158 0.156 0.436 0.312 0.834 0.467z" fill="#ffffff" data-fill-palette-color="secondary"></path><path d="M110.741 274.217c-0.182 0.668-0.343 1.441-0.483 2.318v0c-0.828-0.267-2.231-0.67-4.209-1.209v0c-2.378-0.647-4.185-1.117-5.421-1.411v0l0.104-0.383c0.472 0.1 0.824 0.14 1.055 0.118 0.238-0.02 0.425-0.127 0.563-0.322 0.131-0.197 0.263-0.541 0.396-1.032v0l2.077-7.635c0.134-0.491 0.194-0.855 0.181-1.091-0.02-0.238-0.127-0.425-0.322-0.563-0.188-0.136-0.511-0.28-0.97-0.432v0l0.105-0.383c1.214 0.373 3.011 0.882 5.388 1.529v0c1.802 0.49 3.084 0.818 3.849 0.983v0c-0.295 0.75-0.527 1.433-0.694 2.049v0c-0.135 0.498-0.228 0.902-0.277 1.212v0l-0.443-0.12c0.202-1.078 0.183-1.875-0.057-2.39-0.24-0.516-0.759-0.882-1.558-1.1v0l-1.405-0.382c-0.465-0.127-0.812-0.182-1.042-0.167-0.236 0.013-0.419 0.118-0.55 0.315-0.137 0.195-0.273 0.538-0.406 1.029v0l-0.976 3.587 1.602 0.435c0.413 0.112 0.756 0.093 1.029-0.058 0.275-0.157 0.486-0.35 0.632-0.577 0.146-0.228 0.305-0.526 0.475-0.894v0l0.442 0.12c-0.157 0.422-0.306 0.891-0.446 1.409v0l-0.201 0.737c-0.135 0.498-0.291 1.226-0.467 2.184v0l-0.452-0.123c0.095-0.635 0.079-1.157-0.049-1.565-0.122-0.406-0.477-0.689-1.068-0.849v0l-1.601-0.436-0.997 3.665c-0.134 0.491-0.191 0.856-0.171 1.094 0.013 0.236 0.118 0.419 0.315 0.55 0.19 0.129 0.518 0.257 0.982 0.383v0l1.406 0.382c0.642 0.175 1.178 0.208 1.608 0.1 0.429-0.102 0.8-0.356 1.116-0.762 0.319-0.399 0.631-1 0.934-1.804v0l0.442 0.12c-0.134 0.337-0.279 0.793-0.436 1.369z" fill="#ffffff" data-fill-palette-color="secondary"></path><path d="M121.155 266.122l-0.064 0.392c-0.48-0.051-0.834-0.053-1.061-0.008-0.234 0.044-0.406 0.171-0.516 0.38-0.116 0.208-0.216 0.563-0.298 1.066v0l-1.272 7.81c-0.082 0.503-0.101 0.871-0.057 1.106 0.038 0.233 0.161 0.405 0.371 0.514 0.202 0.109 0.542 0.202 1.017 0.279v0l1.236 0.202c0.911 0.148 1.663-0.008 2.254-0.469 0.597-0.453 1.05-1.294 1.36-2.523v0l0.453 0.074c-0.106 0.396-0.213 0.928-0.323 1.598v0c-0.111 0.683-0.191 1.468-0.239 2.355v0c-0.851-0.18-2.289-0.435-4.312-0.765v0c-2.432-0.396-4.279-0.676-5.539-0.84v0l0.064-0.392c0.48 0.051 0.834 0.053 1.062 0.008 0.234-0.044 0.41-0.171 0.526-0.379 0.11-0.209 0.206-0.565 0.287-1.067v0l1.273-7.81c0.082-0.503 0.104-0.87 0.066-1.104-0.044-0.234-0.171-0.41-0.379-0.526-0.201-0.115-0.538-0.225-1.009-0.33v0l0.064-0.392c0.55 0.131 1.391 0.288 2.523 0.473v0c1.052 0.171 1.89 0.287 2.513 0.348z" fill="#ffffff" data-fill-palette-color="secondary"></path><path d="M133.462 267.51l-0.032 0.396c-0.483-0.011-0.836 0.015-1.058 0.078-0.23 0.063-0.391 0.204-0.483 0.421-0.099 0.217-0.169 0.579-0.21 1.087v0l-0.633 7.888c-0.041 0.508-0.029 0.876 0.034 1.106 0.057 0.229 0.193 0.394 0.41 0.492 0.21 0.099 0.554 0.181 1.033 0.247v0l-0.032 0.396c-0.606-0.089-1.447-0.177-2.523-0.264v0c-1.144-0.092-1.998-0.14-2.563-0.144v0l0.032-0.396c0.483 0.011 0.836-0.015 1.058-0.079 0.23-0.063 0.394-0.203 0.494-0.42 0.092-0.217 0.159-0.58 0.2-1.087v0l0.632-7.888c0.041-0.508 0.033-0.876-0.024-1.105-0.063-0.23-0.203-0.394-0.42-0.494-0.21-0.099-0.554-0.181-1.032-0.246v0l0.031-0.396c0.558 0.086 1.41 0.174 2.554 0.266v0c1.063 0.085 1.907 0.132 2.532 0.142z" fill="#ffffff" data-fill-palette-color="secondary"></path><path d="M145.936 277.328c0.002 0.693 0.052 1.48 0.15 2.362v0c-0.869-0.038-2.329-0.054-4.379-0.048v0c-2.465 0.007-4.332 0.033-5.601 0.078v0l-0.002-0.397c0.482-0.029 0.831-0.084 1.049-0.166 0.224-0.082 0.376-0.235 0.457-0.46 0.074-0.224 0.11-0.591 0.108-1.1v0l-0.023-7.913c-0.002-0.509-0.04-0.876-0.116-1.1-0.082-0.224-0.235-0.376-0.459-0.457-0.217-0.081-0.567-0.134-1.05-0.159v0l-0.001-0.398c1.27 0.037 3.137 0.052 5.602 0.045v0c1.867-0.006 3.191-0.03 3.971-0.073v0c-0.086 0.801-0.128 1.521-0.126 2.159v0c0.002 0.516 0.02 0.93 0.055 1.243v0l-0.458 0.001c-0.092-1.093-0.321-1.856-0.69-2.289-0.368-0.433-0.966-0.649-1.794-0.647v0l-1.456 0.004c-0.482 0.001-0.832 0.04-1.049 0.116-0.224 0.075-0.373 0.225-0.447 0.449-0.081 0.224-0.12 0.591-0.119 1.1v0l0.012 3.717 1.66-0.005c0.428-0.001 0.753-0.111 0.976-0.328 0.223-0.225 0.375-0.466 0.456-0.725 0.081-0.258 0.154-0.588 0.221-0.988v0l0.459-0.002c-0.039 0.448-0.058 0.941-0.057 1.477v0l0.002 0.764c0.002 0.516 0.044 1.259 0.129 2.23v0l-0.468 0.001c-0.077-0.638-0.231-1.137-0.463-1.495-0.225-0.359-0.643-0.538-1.254-0.536v0l-1.66 0.005 0.011 3.798c0.002 0.509 0.043 0.876 0.126 1.1 0.075 0.224 0.225 0.373 0.449 0.447 0.217 0.074 0.567 0.11 1.049 0.108v0l1.457-0.004c0.665-0.002 1.191-0.112 1.577-0.331 0.386-0.212 0.677-0.555 0.873-1.031 0.202-0.469 0.343-1.131 0.422-1.987v0l0.458-0.001c-0.04 0.36-0.059 0.839-0.057 1.436z" fill="#ffffff" data-fill-palette-color="secondary"></path><path d="M158.831 266.18c0.56-0.065 1.002-0.138 1.328-0.217v0l0.046 0.394c-0.36 0.138-0.639 0.355-0.836 0.652-0.191 0.296-0.393 0.791-0.606 1.486v0l-3.199 10.34-0.314 0.037-5.871-9.956c-0.454-0.781-0.962-1.152-1.525-1.114v0l-0.046-0.395c0.551-0.023 1.261-0.086 2.132-0.187v0c1.14-0.133 1.984-0.253 2.531-0.358v0l0.047 0.395c-0.482 0.084-0.835 0.193-1.059 0.328-0.217 0.135-0.31 0.327-0.281 0.577v0c0.024 0.209 0.152 0.509 0.382 0.898v0l4.319 7.298 2.183-6.93c0.247-0.753 0.346-1.336 0.298-1.748v0c-0.043-0.371-0.203-0.622-0.477-0.754-0.276-0.139-0.682-0.19-1.218-0.155v0l-0.046-0.394c0.403-0.006 1.14-0.072 2.212-0.197z" fill="#ffffff" data-fill-palette-color="secondary"></path><path d="M173.435 273.127c0.147 0.677 0.361 1.436 0.641 2.278v0c-0.858 0.145-2.289 0.435-4.292 0.871v0c-2.408 0.524-4.228 0.94-5.46 1.25v0l-0.085-0.388c0.465-0.129 0.795-0.256 0.991-0.382 0.202-0.127 0.318-0.309 0.35-0.545 0.025-0.235-0.016-0.601-0.124-1.099v0l-1.682-7.732c-0.108-0.498-0.223-0.848-0.343-1.051-0.127-0.202-0.309-0.318-0.545-0.351-0.23-0.033-0.583-0.012-1.06 0.064v0l-0.084-0.388c1.249-0.23 3.078-0.607 5.486-1.131v0c1.824-0.397 3.114-0.698 3.868-0.903v0c0.084 0.802 0.194 1.514 0.33 2.137v0c0.11 0.504 0.214 0.905 0.313 1.204v0l-0.447 0.097c-0.319-1.049-0.703-1.747-1.154-2.094-0.451-0.347-1.081-0.432-1.89-0.256v0l-1.423 0.309c-0.471 0.102-0.805 0.213-1.001 0.333-0.203 0.121-0.317 0.298-0.343 0.533-0.032 0.236 0.006 0.603 0.114 1.101v0l0.79 3.632 1.622-0.353c0.418-0.091 0.713-0.266 0.886-0.526 0.171-0.267 0.269-0.535 0.295-0.804 0.025-0.269 0.028-0.607 0.009-1.013v0l0.447-0.097c0.055 0.447 0.14 0.932 0.254 1.456v0l0.163 0.746c0.11 0.504 0.307 1.222 0.593 2.153v0l-0.458 0.1c-0.209-0.608-0.464-1.063-0.766-1.365-0.295-0.304-0.742-0.391-1.338-0.262v0l-1.622 0.353 0.807 3.712c0.108 0.498 0.226 0.847 0.353 1.049 0.121 0.203 0.298 0.317 0.533 0.342 0.228 0.027 0.578-0.011 1.049-0.113v0l1.423-0.31c0.65-0.141 1.141-0.359 1.473-0.653 0.333-0.288 0.546-0.685 0.637-1.192 0.099-0.501 0.098-1.178-0.004-2.031v0l0.448-0.097c0.037 0.36 0.118 0.832 0.246 1.416z" fill="#ffffff" data-fill-palette-color="secondary"></path><path d="M188.494 269.532l0.345 0.163c-0.123 0.421-0.309 0.774-0.557 1.058-0.248 0.284-0.588 0.499-1.018 0.644v0c-1.061 0.358-1.873 0.098-2.435-0.78v0l-1.386-2.166c-0.412-0.649-0.832-1.034-1.26-1.154-0.428-0.121-0.982-0.066-1.664 0.163v0l-1.081 0.365 1.116 3.31c0.163 0.482 0.319 0.817 0.468 1.003 0.142 0.188 0.333 0.285 0.571 0.291 0.232 0.008 0.581-0.053 1.046-0.181v0l0.127 0.376c-0.592 0.157-1.399 0.408-2.422 0.753v0c-1.087 0.367-1.891 0.659-2.413 0.878v0l-0.127-0.376c0.448-0.18 0.762-0.343 0.942-0.49 0.186-0.149 0.282-0.342 0.288-0.581-0.001-0.236-0.083-0.595-0.245-1.078v0l-2.53-7.498c-0.163-0.482-0.315-0.818-0.457-1.006-0.149-0.186-0.342-0.282-0.581-0.288-0.232-0.008-0.581 0.053-1.046 0.181v0l-0.127-0.376c0.547-0.142 1.325-0.383 2.336-0.723v0l1.923-0.671c0.208-0.084 0.45-0.173 0.727-0.266v0c1.415-0.477 2.588-0.579 3.519-0.306 0.933 0.28 1.541 0.841 1.825 1.684v0c0.247 0.733 0.18 1.501-0.201 2.304-0.388 0.804-1.223 1.516-2.504 2.134v0c0.266-0.061 0.49-0.108 0.673-0.141v0c0.702-0.129 1.301-0.106 1.797 0.071 0.494 0.17 0.935 0.562 1.321 1.177v0l0.995 1.578c0.253 0.409 0.47 0.683 0.653 0.822 0.179 0.148 0.365 0.189 0.558 0.124v0c0.315-0.106 0.59-0.439 0.824-0.998zM178.681 261.599c-0.341 0.115-0.58 0.246-0.716 0.392-0.143 0.149-0.206 0.345-0.188 0.59 0.012 0.247 0.094 0.599 0.248 1.056v0l1.283 3.802 1.264-0.427c1.113-0.375 1.796-0.867 2.049-1.475 0.251-0.615 0.23-1.357-0.062-2.226v0c-0.306-0.907-0.766-1.508-1.382-1.801-0.615-0.294-1.447-0.264-2.496 0.089z" fill="#ffffff" data-fill-palette-color="secondary"></path><path d="M192.126 266.732c0.482-0.203 0.928-0.159 1.338 0.133v0c0.346 0.245 0.621 0.608 0.824 1.089v0c0.258 0.613 0.334 1.23 0.226 1.85-0.105 0.626-0.414 1.221-0.928 1.784v0l-0.302-0.271c0.309-0.315 0.532-0.703 0.669-1.166 0.13-0.46 0.12-0.868-0.03-1.225v0c-0.061-0.144-0.133-0.264-0.218-0.361v0c-0.134 0.241-0.33 0.415-0.586 0.523v0c-0.332 0.14-0.655 0.151-0.97 0.033-0.315-0.118-0.547-0.355-0.698-0.712v0c-0.14-0.332-0.144-0.657-0.014-0.977 0.128-0.326 0.357-0.559 0.689-0.7z" fill="#ffffff" data-fill-palette-color="secondary"></path><path d="M212.144 256.604c0.699 0.546 1.312 0.678 1.839 0.394v0l0.204 0.341c-0.475 0.237-1.097 0.586-1.866 1.047v0c-0.984 0.59-1.705 1.045-2.162 1.366v0l-0.204-0.341c0.417-0.282 0.695-0.524 0.836-0.726 0.134-0.199 0.133-0.412-0.004-0.639v0c-0.115-0.192-0.343-0.42-0.682-0.683v0l-2.734-2.185-4.149 2.486 0.39 2.236c0.137 0.757 0.301 1.296 0.493 1.616v0c0.213 0.355 0.492 0.536 0.836 0.544 0.342 0.017 0.767-0.119 1.275-0.408v0l0.205 0.341c-0.673 0.356-1.342 0.733-2.006 1.13v0c-0.512 0.307-0.93 0.581-1.253 0.822v0l-0.204-0.341c0.487-0.482 0.64-1.25 0.459-2.305v0l-2.197-12.8 0.28-0.167zM203.157 257.24l3.87-2.319-4.994-3.976z" fill="#ffffff" data-fill-palette-color="secondary"></path><path d="M214.003 242.094c0.523-0.389 1.033-0.63 1.532-0.722 0.489-0.093 1.06-0.117 1.713-0.07v0c0.187 0.013 0.325-0.013 0.412-0.078v0c0.212-0.158 0.112-0.583-0.302-1.274v0l0.368-0.273c0.435 0.675 1.249 1.813 2.441 3.413v0.001l-0.368 0.273c-0.517-0.478-0.929-0.81-1.237-0.996-0.308-0.186-0.671-0.338-1.09-0.458v0c-0.596-0.174-1.177-0.211-1.745-0.11-0.573 0.105-1.089 0.328-1.546 0.669v0c-0.632 0.47-1.037 1.069-1.216 1.795-0.18 0.735-0.129 1.56 0.154 2.475 0.287 0.92 0.796 1.87 1.526 2.851v0c0.75 1.007 1.53 1.76 2.341 2.256 0.814 0.502 1.602 0.758 2.362 0.768 0.762 0 1.448-0.227 2.058-0.682v0c0.468-0.349 0.84-0.787 1.116-1.314 0.282-0.531 0.424-1.107 0.428-1.727v0c-0.005-0.428-0.072-0.835-0.2-1.223-0.133-0.383-0.371-0.896-0.714-1.538v0l0.368-0.274c1.249 1.677 2.147 2.837 2.693 3.48v0l-0.368 0.274c-0.28-0.308-0.51-0.514-0.688-0.618-0.177-0.113-0.321-0.129-0.429-0.048v0c-0.087 0.065-0.157 0.193-0.21 0.384v0c-0.153 0.647-0.358 1.202-0.614 1.664-0.251 0.458-0.655 0.894-1.21 1.308v0c-0.953 0.71-1.93 1.137-2.932 1.281-1.011 0.143-1.992-0.015-2.943-0.474-0.957-0.455-1.827-1.209-2.61-2.26v0c-0.762-1.024-1.231-2.08-1.407-3.168-0.185-1.09-0.073-2.121 0.336-3.095 0.4-0.975 1.06-1.805 1.981-2.49z" fill="#ffffff" data-fill-palette-color="secondary"></path><path d="M229.347 228.718l0.274 0.287c-0.33 0.352-0.546 0.633-0.647 0.842-0.106 0.214-0.109 0.427-0.008 0.641 0.096 0.218 0.319 0.512 0.67 0.88v0l5.461 5.727c0.351 0.369 0.634 0.606 0.848 0.712 0.209 0.111 0.422 0.118 0.64 0.022 0.213-0.091 0.504-0.293 0.872-0.606v0l0.274 0.288c-0.436 0.359-1.067 0.933-1.892 1.72v0c-0.771 0.736-1.372 1.336-1.801 1.801v0l-0.274-0.288c0.33-0.352 0.546-0.633 0.647-0.842 0.106-0.214 0.111-0.43 0.015-0.647-0.101-0.214-0.327-0.505-0.678-0.874v0l-2.741-2.874-4.407 4.202 2.741 2.875c0.351 0.369 0.634 0.606 0.847 0.712 0.209 0.111 0.422 0.118 0.641 0.022 0.213-0.091 0.504-0.293 0.871-0.606v0l0.274 0.288c-0.47 0.392-1.096 0.961-1.877 1.705v0c-0.83 0.792-1.435 1.397-1.815 1.816v0l-0.274-0.288c0.33-0.352 0.546-0.633 0.646-0.842 0.106-0.214 0.111-0.43 0.016-0.648-0.101-0.214-0.327-0.505-0.678-0.873v0l-5.461-5.727c-0.351-0.369-0.631-0.608-0.84-0.719-0.214-0.106-0.43-0.111-0.648-0.015-0.213 0.091-0.504 0.293-0.871 0.606v0l-0.274-0.287c0.436-0.359 1.069-0.935 1.899-1.727v0c0.771-0.736 1.369-1.334 1.793-1.794v0l0.274 0.287c-0.33 0.352-0.546 0.633-0.646 0.842-0.106 0.214-0.109 0.427-0.008 0.641 0.096 0.218 0.319 0.512 0.67 0.88v0l2.439 2.558 4.407-4.203-2.438-2.558c-0.351-0.369-0.631-0.608-0.84-0.718-0.214-0.106-0.43-0.111-0.648-0.016-0.213 0.091-0.504 0.293-0.872 0.606v0l-0.274-0.287c0.475-0.397 1.104-0.968 1.885-1.713v0c0.825-0.787 1.428-1.39 1.808-1.808z" fill="#ffffff" data-fill-palette-color="secondary"></path><path d="M234.339 222.944l0.301 0.26c-0.295 0.382-0.483 0.682-0.564 0.9-0.085 0.223-0.068 0.436 0.053 0.638 0.116 0.208 0.366 0.479 0.751 0.813v0l5.98 5.182c0.385 0.333 0.689 0.543 0.911 0.628 0.218 0.09 0.431 0.077 0.64-0.039 0.204-0.111 0.474-0.34 0.81-0.686v0l0.3 0.26c-0.431 0.435-1 1.061-1.706 1.877v0c-0.751 0.867-1.296 1.527-1.635 1.979v0l-0.3-0.26c0.295-0.382 0.483-0.682 0.564-0.899 0.085-0.223 0.07-0.438-0.046-0.647-0.12-0.203-0.373-0.471-0.758-0.805v0l-5.981-5.182c-0.385-0.333-0.686-0.545-0.904-0.635-0.223-0.085-0.438-0.07-0.647 0.046-0.204 0.111-0.474 0.34-0.81 0.686v0l-0.3-0.26c0.4-0.399 0.975-1.032 1.727-1.9v0c0.698-0.806 1.236-1.458 1.614-1.956z" fill="#ffffff" data-fill-palette-color="secondary"></path><path d="M249.638 218.709c0.559 0.408 1.223 0.835 1.992 1.278v0c-0.546 0.678-1.423 1.844-2.632 3.5v0c-1.454 1.99-2.539 3.51-3.255 4.559v0l-0.321-0.234c0.262-0.405 0.425-0.72 0.487-0.943 0.066-0.229 0.033-0.442-0.099-0.64-0.137-0.192-0.411-0.439-0.823-0.74v0l-6.389-4.667c-0.411-0.3-0.729-0.486-0.955-0.559-0.229-0.066-0.442-0.033-0.64 0.1-0.194 0.127-0.444 0.378-0.75 0.751v0l-0.321-0.234c0.782-1.001 1.9-2.497 3.353-4.487v0c1.101-1.508 1.866-2.589 2.294-3.243v0c0.595 0.544 1.15 1.004 1.665 1.38v0c0.417 0.304 0.761 0.535 1.033 0.692v0l-0.27 0.37c-0.935-0.574-1.686-0.84-2.253-0.801-0.567 0.04-1.095 0.394-1.583 1.063v0l-0.859 1.176c-0.284 0.389-0.46 0.694-0.529 0.913-0.072 0.225-0.039 0.434 0.098 0.626 0.133 0.198 0.405 0.447 0.816 0.748v0l3.002 2.192 0.979-1.34c0.252-0.345 0.357-0.673 0.313-0.982-0.049-0.313-0.153-0.579-0.313-0.796-0.16-0.218-0.382-0.473-0.666-0.764v0l0.271-0.37c0.338 0.297 0.723 0.604 1.156 0.92v0l0.617 0.451c0.417 0.304 1.041 0.71 1.873 1.217v0l-0.276 0.378c-0.559-0.316-1.052-0.487-1.48-0.513-0.423-0.031-0.814 0.2-1.174 0.693v0l-0.98 1.341 3.068 2.24c0.411 0.3 0.731 0.484 0.96 0.551 0.225 0.072 0.434 0.039 0.626-0.098 0.188-0.131 0.425-0.392 0.709-0.781v0l0.859-1.176c0.392-0.537 0.615-1.026 0.668-1.467 0.058-0.437-0.046-0.875-0.314-1.314-0.258-0.441-0.709-0.946-1.351-1.517v0l0.27-0.37c0.267 0.245 0.641 0.544 1.124 0.897z" fill="#ffffff" data-fill-palette-color="secondary"></path><path d="M248.293 201.716c0.279-0.49 0.483-0.889 0.612-1.198v0l0.345 0.196c-0.102 0.372-0.092 0.725 0.029 1.06 0.125 0.329 0.405 0.785 0.839 1.368v0l6.437 8.702-0.156 0.275-11.5-1.167c-0.898-0.097-1.498 0.093-1.8 0.569v0l-0.345-0.196c0.307-0.458 0.678-1.067 1.111-1.829v0c0.568-0.997 0.971-1.748 1.211-2.252v0l0.345 0.197c-0.218 0.438-0.339 0.788-0.362 1.048-0.02 0.254 0.079 0.444 0.298 0.568v0c0.183 0.104 0.5 0.179 0.95 0.224v0l8.438 0.842-4.29-5.864c-0.461-0.645-0.871-1.07-1.232-1.275v0c-0.325-0.185-0.621-0.205-0.89-0.061-0.275 0.14-0.557 0.437-0.846 0.889v0l-0.346-0.196c0.234-0.328 0.617-0.961 1.152-1.9z" fill="#ffffff" data-fill-palette-color="secondary"></path><path d="M262.541 194.065c0.632 0.282 1.371 0.56 2.215 0.833v0c-0.391 0.777-1.005 2.102-1.841 3.974v0c-1.005 2.25-1.747 3.964-2.227 5.14v0l-0.363-0.162c0.172-0.451 0.265-0.793 0.279-1.025 0.017-0.238-0.06-0.44-0.232-0.605-0.174-0.16-0.494-0.343-0.958-0.551v0l-7.226-3.225c-0.465-0.208-0.815-0.323-1.05-0.346-0.238-0.017-0.44 0.06-0.605 0.231-0.163 0.165-0.355 0.462-0.577 0.892v0l-0.362-0.162c0.555-1.143 1.334-2.839 2.339-5.09v0c0.761-1.705 1.282-2.922 1.563-3.652v0c0.696 0.407 1.335 0.741 1.917 1.001v0c0.471 0.21 0.856 0.364 1.156 0.46v0l-0.187 0.419c-1.034-0.365-1.824-0.469-2.371-0.311-0.546 0.158-0.988 0.615-1.325 1.371v0l-0.594 1.33c-0.197 0.44-0.305 0.775-0.325 1.003-0.023 0.235 0.052 0.432 0.226 0.592 0.171 0.166 0.49 0.352 0.955 0.56v0l3.394 1.515 0.677-1.516c0.174-0.391 0.208-0.732 0.101-1.025-0.113-0.296-0.271-0.534-0.474-0.713-0.202-0.18-0.473-0.382-0.811-0.608v0l0.187-0.418c0.393 0.22 0.834 0.439 1.324 0.658v0l0.697 0.311c0.471 0.21 1.167 0.476 2.087 0.797v0l-0.191 0.428c-0.613-0.192-1.131-0.256-1.554-0.192-0.42 0.058-0.754 0.366-1.004 0.924v0l-0.676 1.516 3.468 1.549c0.465 0.208 0.816 0.32 1.055 0.336 0.235 0.023 0.432-0.052 0.591-0.226 0.157-0.168 0.333-0.472 0.53-0.912v0l0.594-1.33c0.271-0.608 0.387-1.132 0.346-1.574-0.034-0.439-0.229-0.846-0.582-1.219-0.345-0.377-0.891-0.777-1.639-1.201v0l0.186-0.418c0.312 0.184 0.741 0.398 1.287 0.641z" fill="#ffffff" data-fill-palette-color="secondary"></path><path d="M268.567 179.804l0.335-0.181c0.266 0.349 0.441 0.707 0.523 1.075 0.082 0.368 0.054 0.769-0.084 1.202v0c-0.34 1.067-1.031 1.567-2.071 1.499v0l-2.566-0.166c-0.767-0.052-1.326 0.058-1.677 0.331-0.351 0.273-0.635 0.752-0.854 1.437v0l-0.347 1.087 3.328 1.062c0.485 0.155 0.847 0.227 1.085 0.218 0.236-0.003 0.427-0.099 0.573-0.288 0.144-0.182 0.302-0.499 0.474-0.95v0l0.378 0.121c-0.225 0.57-0.501 1.369-0.829 2.397v0c-0.349 1.093-0.589 1.914-0.721 2.464v0l-0.379-0.121c0.121-0.468 0.175-0.817 0.164-1.049-0.01-0.238-0.109-0.43-0.297-0.576-0.191-0.139-0.529-0.286-1.014-0.441v0l-7.539-2.405c-0.485-0.155-0.846-0.231-1.082-0.227-0.238 0.01-0.43 0.109-0.576 0.297-0.144 0.182-0.302 0.499-0.474 0.95v0l-0.378-0.121c0.21-0.524 0.477-1.294 0.801-2.31v0l0.6-1.947c0.055-0.218 0.127-0.465 0.215-0.743v0c0.454-1.423 1.067-2.428 1.839-3.016 0.778-0.586 1.591-0.743 2.439-0.473v0c0.737 0.235 1.316 0.744 1.736 1.527 0.418 0.789 0.497 1.883 0.236 3.282v0c0.108-0.25 0.203-0.459 0.285-0.625v0c0.312-0.642 0.686-1.11 1.122-1.406 0.43-0.298 1.007-0.42 1.731-0.367v0l1.86 0.134c0.479 0.039 0.829 0.026 1.049-0.04 0.225-0.057 0.368-0.182 0.43-0.376v0c0.101-0.317-0.004-0.735-0.315-1.255zM256.363 183.009c-0.109 0.343-0.146 0.613-0.109 0.81 0.035 0.204 0.156 0.371 0.364 0.501 0.206 0.137 0.538 0.279 0.997 0.425v0l3.823 1.219 0.406-1.271c0.357-1.119 0.365-1.961 0.025-2.525-0.347-0.567-0.956-0.989-1.83-1.268v0c-0.912-0.291-1.669-0.276-2.27 0.045-0.601 0.321-1.07 1.009-1.406 2.064z" fill="#ffffff" data-fill-palette-color="secondary"></path></g></svg></g></svg></g></svg></g></svg></g><defs></defs></svg><rect width="279.72" height="279.72" fill="none" stroke="none" visibility="hidden"></rect></g></svg></g></svg>