<svg xmlns="http://www.w3.org/2000/svg" version="1.1" xmlns:xlink="http://www.w3.org/1999/xlink" xmlns:svgjs="http://svgjs.dev/svgjs" width="2000" height="414" viewBox="0 0 2000 414"><g transform="matrix(1,0,0,1,-1.2121212121212466,-1.0153322502658852)"><svg viewBox="0 0 396 82" data-background-color="#f9f9f9" preserveAspectRatio="xMidYMid meet" height="414" width="2000" xmlns="http://www.w3.org/2000/svg" xmlns:xlink="http://www.w3.org/1999/xlink"><g id="tight-bounds" transform="matrix(1,0,0,1,0.2400000000000091,0.20110445536667498)"><svg viewBox="0 0 395.52 81.59779108926666" height="81.59779108926666" width="395.52"><g><svg viewBox="0 0 517.265829686983 106.71457602248846" height="81.59779108926666" width="395.52"><g transform="matrix(1,0,0,1,0,14.748541259258538)"><svg viewBox="0 0 395.52 77.21749350397138" height="77.21749350397138" width="395.52"><g id="textblocktransform"><svg viewBox="0 0 395.52 77.21749350397138" height="77.21749350397138" width="395.52" id="textblock"><g><svg viewBox="0 0 395.52 42.40021380846324" height="42.40021380846324" width="395.52"><g transform="matrix(1,0,0,1,0,0)"><svg width="395.52" viewBox="2.1 -35.4 336.71999999999997 36.1" height="42.40021380846324" data-palette-color="#030303"><path d="M28.3-4.05Q29.15-2.8 30.18-2.08 31.2-1.35 32.7-1L32.7-1 32.7 0Q30.3-0.15 26.7-0.15L26.7-0.15Q24-0.15 21.55 0L21.55 0 21.55-1Q22.75-1.05 23.3-1.3 23.85-1.55 23.85-2.05L23.85-2.05Q23.85-2.55 23.35-3.25L23.35-3.25 16.05-14.25Q14.6-16.45 13.6-17.13 12.6-17.8 10.8-17.9L10.8-17.9 10.8-5.3Q10.8-3.4 11.1-2.55 11.4-1.7 12.23-1.4 13.05-1.1 14.85-1L14.85-1 14.85 0Q12.55-0.15 8.5-0.15L8.5-0.15Q4.2-0.15 2.1 0L2.1 0 2.1-1Q3.9-1.1 4.73-1.4 5.55-1.7 5.85-2.55 6.15-3.4 6.15-5.3L6.15-5.3 6.15-30.1Q6.15-32 5.85-32.85 5.55-33.7 4.73-34 3.9-34.3 2.1-34.4L2.1-34.4 2.1-35.4Q4.2-35.25 8.5-35.25L8.5-35.25Q12.5-35.25 14.85-35.4L14.85-35.4 14.85-34.4Q13.05-34.3 12.23-34 11.4-33.7 11.1-32.85 10.8-32 10.8-30.1L10.8-30.1 10.8-18.9Q14.45-19.05 16.5-21.7L16.5-21.7 21.3-27.8Q23.85-30.95 23.85-32.6L23.85-32.6Q23.85-34.35 20.75-34.4L20.75-34.4 20.75-35.4Q23.6-35.25 26.5-35.25L26.5-35.25Q29.25-35.25 30.75-35.4L30.75-35.4 30.75-34.4Q29.1-34.15 27.65-33.33 26.2-32.5 24.85-30.75L24.85-30.75 16.7-20.3 28.3-4.05ZM60.25-4.2Q61.6-1.1 63.7-1L63.7-1 63.7 0Q61.7-0.15 58.35-0.15L58.35-0.15Q54.05-0.15 51.95 0L51.95 0 51.95-1Q53.8-1.1 54.67-1.5 55.55-1.9 55.55-2.85L55.55-2.85Q55.55-3.65 54.85-5.2L54.85-5.2 52.3-10.9 40.15-10.9 38.45-7.15Q37.6-5.2 37.6-3.95L37.6-3.95Q37.6-2.65 38.52-1.93 39.45-1.2 41.5-1L41.5-1 41.5 0Q40-0.15 36.95-0.15L36.95-0.15Q33.9-0.15 32.6 0L32.6 0 32.6-1Q33.95-1.35 34.9-2.53 35.85-3.7 36.7-5.65L36.7-5.65 47.75-30.65 48.55-30.65 60.25-4.2ZM40.55-11.9L51.9-11.9 46.25-24.6 40.55-11.9ZM94.45-2.75L95.15-2.1Q94.2-0.75 92.97-0.03 91.75 0.7 90.05 0.7L90.05 0.7Q85.84 0.7 84.9-3.1L84.9-3.1 83.34-9.35Q82.65-12.15 81.27-13.1 79.9-14.05 77.2-14.05L77.2-14.05 74.34-14.05 74.34-5.3Q74.34-3.4 74.65-2.55 74.95-1.7 75.77-1.4 76.59-1.1 78.4-1L78.4-1 78.4 0Q76.09-0.15 72.05-0.15L72.05-0.15Q67.75-0.15 65.64 0L65.64 0 65.64-1Q67.45-1.1 68.27-1.4 69.09-1.7 69.39-2.55 69.7-3.4 69.7-5.3L69.7-5.3 69.7-25.1Q69.7-27 69.39-27.85 69.09-28.7 68.27-29 67.45-29.3 65.64-29.4L65.64-29.4 65.64-30.4Q67.75-30.25 71.75-30.25L71.75-30.25 76.84-30.3Q77.7-30.35 78.8-30.35L78.8-30.35Q84.4-30.35 87.37-28.25 90.34-26.15 90.34-22.8L90.34-22.8Q90.34-19.9 88.02-17.5 85.7-15.1 80.4-14.45L80.4-14.45Q81.4-14.35 82.09-14.25L82.09-14.25Q84.75-13.85 86.3-12.65 87.84-11.45 88.5-8.8L88.5-8.8 89.59-4.25Q90-2.5 90.47-1.78 90.95-1.05 91.7-1.05L91.7-1.05Q92.95-1.05 94.45-2.75L94.45-2.75ZM77.55-29.4Q76.2-29.4 75.52-29.05 74.84-28.7 74.59-27.8 74.34-26.9 74.34-25.1L74.34-25.1 74.34-15.05 77.7-15.05Q82.09-15.05 83.72-16.93 85.34-18.8 85.34-22.25L85.34-22.25Q85.34-25.85 83.52-27.63 81.7-29.4 77.55-29.4L77.55-29.4ZM122.24-4.2Q123.59-1.1 125.69-1L125.69-1 125.69 0Q123.69-0.15 120.34-0.15L120.34-0.15Q116.04-0.15 113.94 0L113.94 0 113.94-1Q115.79-1.1 116.67-1.5 117.54-1.9 117.54-2.85L117.54-2.85Q117.54-3.65 116.84-5.2L116.84-5.2 114.29-10.9 102.14-10.9 100.44-7.15Q99.59-5.2 99.59-3.95L99.59-3.95Q99.59-2.65 100.52-1.93 101.44-1.2 103.49-1L103.49-1 103.49 0Q101.99-0.15 98.94-0.15L98.94-0.15Q95.89-0.15 94.59 0L94.59 0 94.59-1Q95.94-1.35 96.89-2.53 97.84-3.7 98.69-5.65L98.69-5.65 109.74-30.65 110.54-30.65 122.24-4.2ZM102.54-11.9L113.89-11.9 108.24-24.6 102.54-11.9ZM158.04-30.4L158.04-29.4Q156.29-29.3 155.44-28.88 154.59-28.45 154.29-27.48 153.99-26.5 153.99-24.6L153.99-24.6 153.99 0.25 152.84 0.25 132.84-27.45 132.84-5.8Q132.84-3.85 133.17-2.9 133.49-1.95 134.44-1.53 135.39-1.1 137.39-1L137.39-1 137.39 0Q135.59-0.15 132.29-0.15L132.29-0.15Q129.29-0.15 127.64 0L127.64 0 127.64-1Q129.39-1.1 130.24-1.53 131.09-1.95 131.39-2.93 131.69-3.9 131.69-5.8L131.69-5.8 131.69-25.1Q131.69-27 131.39-27.85 131.09-28.7 130.27-29 129.44-29.3 127.64-29.4L127.64-29.4 127.64-30.4Q129.29-30.25 132.29-30.25L132.29-30.25Q134.99-30.25 136.89-30.4L136.89-30.4 152.84-8.2 152.84-24.6Q152.84-26.55 152.52-27.5 152.19-28.45 151.24-28.88 150.29-29.3 148.29-29.4L148.29-29.4 148.29-30.4Q150.09-30.25 153.39-30.25L153.39-30.25Q156.39-30.25 158.04-30.4L158.04-30.4ZM211.34-30.25Q214.49-30.25 215.69-30.4L215.69-30.4 215.69-29.4Q214.34-29.1 213.39-27.98 212.44-26.85 211.64-24.45L211.64-24.45 203.04 0.25 202.24 0.25 194.54-18.8 186.39 0.25 185.59 0.25 175.39-26.2Q174.19-29.3 171.94-29.4L171.94-29.4 171.94-30.4Q173.94-30.25 177.29-30.25L177.29-30.25Q181.59-30.25 183.69-30.4L183.69-30.4 183.69-29.4Q181.79-29.3 181.01-28.93 180.24-28.55 180.24-27.6L180.24-27.6Q180.24-26.85 180.79-25.2L180.79-25.2 187.89-5.85 193.94-20.2 191.54-26.2Q190.24-29.3 188.09-29.4L188.09-29.4 188.09-30.4Q190.14-30.25 193.44-30.25L193.44-30.25Q197.74-30.25 199.84-30.4L199.84-30.4 199.84-29.4Q197.94-29.3 197.14-28.93 196.34-28.55 196.34-27.55L196.34-27.55Q196.34-26.7 196.94-25.2L196.94-25.2 204.19-6.2 209.54-21.85Q210.49-24.65 210.49-26.25L210.49-26.25Q210.49-27.9 209.56-28.6 208.64-29.3 206.79-29.4L206.79-29.4 206.79-30.4Q208.29-30.25 211.34-30.25L211.34-30.25ZM239.08-4.2Q240.43-1.1 242.53-1L242.53-1 242.53 0Q240.53-0.15 237.18-0.15L237.18-0.15Q232.88-0.15 230.78 0L230.78 0 230.78-1Q232.63-1.1 233.51-1.5 234.38-1.9 234.38-2.85L234.38-2.85Q234.38-3.65 233.68-5.2L233.68-5.2 231.13-10.9 218.98-10.9 217.28-7.15Q216.43-5.2 216.43-3.95L216.43-3.95Q216.43-2.65 217.36-1.93 218.28-1.2 220.33-1L220.33-1 220.33 0Q218.83-0.15 215.78-0.15L215.78-0.15Q212.73-0.15 211.43 0L211.43 0 211.43-1Q212.78-1.35 213.73-2.53 214.68-3.7 215.53-5.65L215.53-5.65 226.58-30.65 227.38-30.65 239.08-4.2ZM219.38-11.9L230.73-11.9 225.08-24.6 219.38-11.9ZM277.13-30.4L277.13-29.4Q275.33-29.3 274.5-29 273.68-28.7 273.38-27.85 273.08-27 273.08-25.1L273.08-25.1 273.08-5.3Q273.08-3.4 273.38-2.55 273.68-1.7 274.5-1.4 275.33-1.1 277.13-1L277.13-1 277.13 0Q275.03-0.15 270.73-0.15L270.73-0.15Q266.73-0.15 264.38 0L264.38 0 264.38-1Q266.18-1.1 267-1.4 267.83-1.7 268.13-2.55 268.43-3.4 268.43-5.3L268.43-5.3 268.43-15.25 253.18-15.25 253.18-5.3Q253.18-3.4 253.48-2.55 253.78-1.7 254.61-1.4 255.43-1.1 257.23-1L257.23-1 257.23 0Q254.93-0.15 250.88-0.15L250.88-0.15Q246.58-0.15 244.48 0L244.48 0 244.48-1Q246.28-1.1 247.11-1.4 247.93-1.7 248.23-2.55 248.53-3.4 248.53-5.3L248.53-5.3 248.53-25.1Q248.53-27 248.23-27.85 247.93-28.7 247.11-29 246.28-29.3 244.48-29.4L244.48-29.4 244.48-30.4Q246.58-30.25 250.88-30.25L250.88-30.25Q254.88-30.25 257.23-30.4L257.23-30.4 257.23-29.4Q255.43-29.3 254.61-29 253.78-28.7 253.48-27.85 253.18-27 253.18-25.1L253.18-25.1 253.18-16.25 268.43-16.25 268.43-25.1Q268.43-27 268.13-27.85 267.83-28.7 267-29 266.18-29.3 264.38-29.4L264.38-29.4 264.38-30.4Q266.68-30.25 270.73-30.25L270.73-30.25Q275.03-30.25 277.13-30.4L277.13-30.4ZM294.08-30.4L294.08-29.4Q292.28-29.3 291.45-29 290.63-28.7 290.33-27.85 290.03-27 290.03-25.1L290.03-25.1 290.03-5.3Q290.03-3.4 290.33-2.55 290.63-1.7 291.45-1.43 292.28-1.15 294.08-1.15L294.08-1.15 297.23-1.15Q300.68-1.15 302.6-3.2 304.53-5.25 304.93-10L304.93-10 306.08-10Q305.93-8.45 305.93-5.9L305.93-5.9Q305.93-3.3 306.28 0L306.28 0Q303.03-0.15 295.33-0.15L295.33-0.15Q286.08-0.15 281.33 0L281.33 0 281.33-1Q283.13-1.1 283.95-1.4 284.78-1.7 285.08-2.55 285.38-3.4 285.38-5.3L285.38-5.3 285.38-25.1Q285.38-27 285.08-27.85 284.78-28.7 283.95-29 283.13-29.3 281.33-29.4L281.33-29.4 281.33-30.4Q283.43-30.25 287.73-30.25L287.73-30.25Q291.73-30.25 294.08-30.4L294.08-30.4ZM335.38-4.2Q336.73-1.1 338.82-1L338.82-1 338.82 0Q336.82-0.15 333.48-0.15L333.48-0.15Q329.18-0.15 327.07 0L327.07 0 327.07-1Q328.93-1.1 329.8-1.5 330.68-1.9 330.68-2.85L330.68-2.85Q330.68-3.65 329.98-5.2L329.98-5.2 327.43-10.9 315.27-10.9 313.57-7.15Q312.73-5.2 312.73-3.95L312.73-3.95Q312.73-2.65 313.65-1.93 314.57-1.2 316.63-1L316.63-1 316.63 0Q315.13-0.15 312.07-0.15L312.07-0.15Q309.02-0.15 307.73 0L307.73 0 307.73-1Q309.07-1.35 310.02-2.53 310.98-3.7 311.82-5.65L311.82-5.65 322.88-30.65 323.68-30.65 335.38-4.2ZM315.68-11.9L327.02-11.9 321.38-24.6 315.68-11.9Z" opacity="1" transform="matrix(1,0,0,1,0,0)" fill="#ffffff" class="wordmark-text-0" data-fill-palette-color="primary" id="text-0"></path></svg></g></svg></g><g transform="matrix(1,0,0,1,0,52.40988668351001)"><svg viewBox="0 0 395.52 24.80760682046138" height="24.80760682046138" width="395.52"><g transform="matrix(1,0,0,1,0,0)"><svg width="395.52" viewBox="2.38 -31.61 602.96 37.82000000000001" height="24.80760682046138" data-palette-color="#030303"><path d="M2.38 0L2.38 0 2.38-1.45Q4.4-1.53 5.38-1.79 6.37-2.06 6.69-2.78 7.02-3.51 7.02-4.92L7.02-4.92 7.02-23.63Q7.02-25.04 6.69-25.77 6.37-26.49 5.38-26.77 4.4-27.06 2.38-27.1L2.38-27.1 2.38-28.55Q3.55-28.51 5.14-28.49 6.73-28.47 8.99-28.47L8.99-28.47Q10.12-28.47 11.27-28.49 12.42-28.51 13.43-28.53 14.44-28.55 15.08-28.55L15.08-28.55Q22.7-28.55 26.59-25.08 30.48-21.61 30.48-14.88L30.48-14.88Q30.48-10.16 28.65-6.83 26.81-3.51 23.33-1.75 19.84 0 14.92 0L14.92 0Q13.91 0 12.44-0.06 10.97-0.12 9.03-0.12L9.03-0.12Q7.1-0.12 5.34-0.08 3.59-0.04 2.38 0ZM14.56-1.41L14.56-1.41Q20.56-1.41 23.35-4.52 26.13-7.62 26.13-14.31L26.13-14.31Q26.13-21.09 23.39-24.11 20.65-27.14 14.6-27.14L14.6-27.14 11.09-27.14 11.09-4.84Q11.09-3.39 11.35-2.66 11.61-1.94 12.36-1.67 13.1-1.41 14.56-1.41ZM34.76 0L34.76 0 34.76-1.45Q37.3-1.53 38.24-2.16 39.19-2.78 39.19-4.35L39.19-4.35 39.19-15.77Q39.19-17.66 38.2-18.45 37.22-19.23 34.76-19.31L34.76-19.31 34.76-20.77Q35.6-20.73 36.43-20.69 37.26-20.65 38.18-20.65L38.18-20.65Q40.84-20.65 43.1-21.21L43.1-21.21 43.1-4.6Q43.1-2.9 44.35-2.22 45.6-1.53 48.63-1.45L48.63-1.45 48.63 0Q47.9-0.04 46.67-0.06 45.44-0.08 44.01-0.12 42.58-0.16 41.21-0.16L41.21-0.16Q39.27-0.16 37.48-0.1 35.68-0.04 34.76 0ZM50.72-14.31L50.72-14.31Q49.88-14.31 49.33-14.82 48.79-15.32 48.79-16.09L48.79-16.09Q48.79-16.61 49.01-17.04 49.23-17.46 49.43-17.84 49.63-18.23 49.63-18.59L49.63-18.59Q49.63-19.44 48.38-19.44L48.38-19.44Q47.42-19.44 46.33-18.93 45.24-18.43 44.33-17.62 43.42-16.81 42.98-15.77L42.98-15.77 42.86-17.34Q43.99-19.23 45.7-20.28 47.42-21.33 49.27-21.33L49.27-21.33Q51.17-21.33 52.26-20.28 53.34-19.23 53.34-17.46L53.34-17.46Q53.34-16.05 52.62-15.18 51.89-14.31 50.72-14.31ZM67.21 0.56L67.21 0.56Q64.31 0.56 62.15-0.75 60-2.06 58.83-4.52 57.66-6.98 57.66-10.32L57.66-10.32Q57.66-13.71 58.85-16.17 60.04-18.63 62.23-19.98 64.43-21.33 67.5-21.33L67.5-21.33Q70.12-21.33 72.01-20.32 73.91-19.31 74.93-17.16 75.96-15 75.88-11.53L75.88-11.53 60.24-11.53 60.2-12.98 71.85-12.98Q71.93-14.96 71.45-16.51 70.96-18.06 69.93-18.99 68.91-19.92 67.29-19.92L67.29-19.92Q65.24-19.92 63.68-18.15 62.13-16.37 61.85-12.62L61.85-12.62 61.93-12.54Q61.89-12.1 61.87-11.61 61.85-11.13 61.85-10.6L61.85-10.6Q61.85-6.29 63.5-3.93 65.16-1.57 68.3-1.57L68.3-1.57Q70.32-1.57 71.93-2.58 73.54-3.59 74.55-5.73L74.55-5.73 75.88-4.96Q74.83-2.38 72.56-0.91 70.28 0.56 67.21 0.56ZM87.86 0.56L87.86 0.56Q85.11 0.56 83.52-0.85 81.93-2.26 81.93-4.68L81.93-4.68Q81.93-6.57 82.84-7.74 83.74-8.91 85.15-9.6 86.57-10.28 88.16-10.75 89.75-11.21 91.18-11.59 92.61-11.98 93.52-12.52 94.43-13.06 94.43-13.95L94.43-13.95 94.43-15.93Q94.43-17.86 93.3-18.85 92.17-19.84 89.95-19.84L89.95-19.84Q88.34-19.84 87.25-19.38 86.16-18.91 86.16-18.27L86.16-18.27Q86.16-17.86 86.44-17.42 86.73-16.98 86.99-16.47 87.25-15.97 87.25-15.36L87.25-15.36Q87.25-14.6 86.69-14.11 86.12-13.63 85.15-13.63L85.15-13.63Q84.07-13.63 83.38-14.33 82.69-15.04 82.69-16.21L82.69-16.21Q82.69-17.66 83.82-18.83 84.95-20 86.87-20.67 88.78-21.33 91.2-21.33L91.2-21.33Q93.7-21.33 95.27-20.56 96.85-19.8 97.57-18.19 98.3-16.57 98.3-13.99L98.3-13.99 98.3-3.23Q98.3-2.26 98.62-1.81 98.94-1.37 99.63-1.37L99.63-1.37Q100.32-1.37 101-1.71 101.69-2.06 102.33-2.54L102.33-2.54 103.02-1.33Q102.01-0.4 100.88 0.08 99.75 0.56 98.26 0.56L98.26 0.56Q94.39 0.56 94.43-2.98L94.43-2.98Q93.22-1.21 91.59-0.32 89.95 0.56 87.86 0.56ZM89.43-1.81L89.43-1.81Q90.88-1.81 92.17-2.52 93.46-3.23 94.43-4.6L94.43-4.6 94.43-11.98Q94.02-11.33 93.04-10.87 92.05-10.4 90.86-9.98 89.67-9.56 88.54-8.99 87.41-8.43 86.69-7.52 85.96-6.61 85.96-5.2L85.96-5.2Q85.96-3.59 86.89-2.7 87.82-1.81 89.43-1.81ZM132.21 0L132.21 0 132.21-1.45Q133.9-1.53 134.53-2.16 135.15-2.78 135.15-4.35L135.15-4.35 135.15-13.95Q135.15-16.61 134.18-17.96 133.22-19.31 131.28-19.31L131.28-19.31Q129.59-19.31 128.14-18.31 126.68-17.3 125.59-15.2L125.59-15.2 125.39-16.45Q126.52-18.99 128.46-20.16 130.39-21.33 132.69-21.33L132.69-21.33Q135.76-21.33 137.41-19.33 139.06-17.34 139.06-13.63L139.06-13.63 139.06-4.35Q139.06-2.78 140.01-2.16 140.96-1.53 143.46-1.45L143.46-1.45 143.46 0Q142.89-0.04 141.82-0.06 140.76-0.08 139.53-0.12 138.3-0.16 137.13-0.16L137.13-0.16Q135.72-0.16 134.32-0.1 132.93-0.04 132.21 0ZM104.87 0L104.87 0 104.87-1.45Q107.41-1.53 108.36-2.14 109.3-2.74 109.3-4.35L109.3-4.35 109.3-15.77Q109.3-17.66 108.32-18.45 107.33-19.23 104.87-19.31L104.87-19.31 104.87-20.77Q105.68-20.73 106.52-20.69 107.37-20.65 108.26-20.65L108.26-20.65Q109.63-20.65 110.88-20.79 112.13-20.93 113.22-21.21L113.22-21.21 113.22-4.35Q113.22-2.74 113.86-2.14 114.51-1.53 116.16-1.45L116.16-1.45 116.16 0Q115.27-0.04 113.96-0.1 112.65-0.16 111.2-0.16L111.2-0.16Q109.59-0.16 107.85-0.1 106.12-0.04 104.87 0ZM119.3 0L119.3 0 119.3-1.45Q121-1.53 121.6-2.16 122.21-2.78 122.21-4.35L122.21-4.35 122.21-13.95Q122.21-16.61 121.24-17.96 120.27-19.31 118.38-19.31L118.38-19.31Q116.76-19.31 115.39-18.41 114.02-17.5 112.97-15.73L112.97-15.73 113.05-17.38Q113.98-19.23 115.78-20.28 117.57-21.33 119.79-21.33L119.79-21.33Q122.81-21.33 124.47-19.35 126.12-17.38 126.12-13.67L126.12-13.67 126.12-4.35Q126.12-2.78 126.74-2.16 127.37-1.53 129.06-1.45L129.06-1.45 129.06 0Q128.38-0.04 126.99-0.1 125.59-0.16 124.18-0.16L124.18-0.16Q122.77-0.16 121.38-0.1 119.99-0.04 119.3 0ZM156.76 0.56L156.76 0.56Q153.86 0.56 151.7-0.75 149.54-2.06 148.37-4.52 147.21-6.98 147.21-10.32L147.21-10.32Q147.21-13.71 148.39-16.17 149.58-18.63 151.78-19.98 153.98-21.33 157.04-21.33L157.04-21.33Q159.66-21.33 161.56-20.32 163.46-19.31 164.48-17.16 165.51-15 165.43-11.53L165.43-11.53 149.79-11.53 149.75-12.98 161.4-12.98Q161.48-14.96 161-16.51 160.51-18.06 159.48-18.99 158.46-19.92 156.84-19.92L156.84-19.92Q154.79-19.92 153.23-18.15 151.68-16.37 151.4-12.62L151.4-12.62 151.48-12.54Q151.44-12.1 151.42-11.61 151.4-11.13 151.4-10.6L151.4-10.6Q151.4-6.29 153.05-3.93 154.71-1.57 157.85-1.57L157.85-1.57Q159.87-1.57 161.48-2.58 163.09-3.59 164.1-5.73L164.1-5.73 165.43-4.96Q164.38-2.38 162.1-0.91 159.83 0.56 156.76 0.56ZM169.82 0L169.82 0 169.82-1.45Q172.36-1.53 173.31-2.16 174.26-2.78 174.26-4.35L174.26-4.35 174.26-15.77Q174.26-17.66 173.27-18.45 172.28-19.23 169.82-19.31L169.82-19.31 169.82-20.77Q170.67-20.73 171.5-20.69 172.32-20.65 173.25-20.65L173.25-20.65Q175.91-20.65 178.17-21.21L178.17-21.21 178.17-4.6Q178.17-2.9 179.42-2.22 180.67-1.53 183.69-1.45L183.69-1.45 183.69 0Q182.97-0.04 181.74-0.06 180.51-0.08 179.08-0.12 177.65-0.16 176.28-0.16L176.28-0.16Q174.34-0.16 172.55-0.1 170.75-0.04 169.82 0ZM185.79-14.31L185.79-14.31Q184.94-14.31 184.4-14.82 183.86-15.32 183.86-16.09L183.86-16.09Q183.86-16.61 184.08-17.04 184.3-17.46 184.5-17.84 184.7-18.23 184.7-18.59L184.7-18.59Q184.7-19.44 183.45-19.44L183.45-19.44Q182.49-19.44 181.4-18.93 180.31-18.43 179.4-17.62 178.49-16.81 178.05-15.77L178.05-15.77 177.93-17.34Q179.06-19.23 180.77-20.28 182.49-21.33 184.34-21.33L184.34-21.33Q186.24-21.33 187.32-20.28 188.41-19.23 188.41-17.46L188.41-17.46Q188.41-16.05 187.69-15.18 186.96-14.31 185.79-14.31ZM194.1 6.21L194.1 6.21 193.65 5.16Q195.79 4.48 196.9 3.29 198.01 2.1 198.01 0.77L198.01 0.77Q198.01-0.2 197.28-0.2L197.28-0.2Q196.92-0.2 196.43-0.02 195.95 0.16 195.35 0.16L195.35 0.16Q194.18 0.16 193.47-0.58 192.76-1.33 192.76-2.46L192.76-2.46Q192.76-3.75 193.67-4.58 194.58-5.4 195.99-5.4L195.99-5.4Q197.64-5.4 198.65-4.13 199.66-2.86 199.66-0.65L199.66-0.65Q199.66 1.94 198.23 3.65 196.8 5.36 194.1 6.21ZM215.22 0L215.22 0 215.22-1.45Q217.24-1.53 218.22-1.79 219.21-2.06 219.53-2.78 219.86-3.51 219.86-4.92L219.86-4.92 219.86-23.63Q219.86-25.08 219.53-25.79 219.21-26.49 218.22-26.77 217.24-27.06 215.22-27.1L215.22-27.1 215.22-28.55Q216.07-28.51 217.7-28.49 219.33-28.47 221.59-28.47L221.59-28.47Q223.77-28.47 225.56-28.51 227.36-28.55 228.16-28.55L228.16-28.55Q232.48-28.55 234.86-26.81 237.24-25.08 237.24-21.94L237.24-21.94Q237.24-19.4 235.46-17.62 233.69-15.85 230.5-15.16L230.5-15.16 230.5-15.08Q234.94-14.68 237.2-12.86 239.45-11.05 239.45-7.94L239.45-7.94Q239.45-4.27 236.67-2.14 233.89 0 229.05 0L229.05 0Q228.4 0 227.34-0.04 226.27-0.08 224.84-0.1 223.4-0.12 221.63-0.12L221.63-0.12Q219.33-0.12 217.68-0.1 216.03-0.08 215.22 0ZM227.24-1.53L227.24-1.53Q231.19-1.53 233.14-3.19 235.1-4.84 235.1-8.1L235.1-8.1Q235.1-11.13 233.26-12.62 231.43-14.11 227.72-14.11L227.72-14.11 223.08-14.11 223.08-15.52 226.87-15.52Q229.98-15.52 231.53-17.04 233.08-18.55 233.08-21.49L233.08-21.49Q233.08-24.35 231.65-25.73 230.22-27.1 227.15-27.1L227.15-27.1 223.93-27.06 223.93-4.92Q223.93-3.51 224.17-2.78 224.41-2.06 225.14-1.79 225.86-1.53 227.24-1.53ZM254.17 0.56L254.17 0.56Q251.27 0.56 249.11-0.75 246.95-2.06 245.78-4.52 244.61-6.98 244.61-10.32L244.61-10.32Q244.61-13.71 245.8-16.17 246.99-18.63 249.19-19.98 251.39-21.33 254.45-21.33L254.45-21.33Q257.07-21.33 258.97-20.32 260.86-19.31 261.89-17.16 262.92-15 262.84-11.53L262.84-11.53 247.19-11.53 247.15-12.98 258.81-12.98Q258.89-14.96 258.4-16.51 257.92-18.06 256.89-18.99 255.86-19.92 254.25-19.92L254.25-19.92Q252.19-19.92 250.64-18.15 249.09-16.37 248.81-12.62L248.81-12.62 248.89-12.54Q248.85-12.1 248.83-11.61 248.81-11.13 248.81-10.6L248.81-10.6Q248.81-6.29 250.46-3.93 252.11-1.57 255.26-1.57L255.26-1.57Q257.27-1.57 258.89-2.58 260.5-3.59 261.51-5.73L261.51-5.73 262.84-4.96Q261.79-2.38 259.51-0.91 257.23 0.56 254.17 0.56ZM266.95 0L266.95 0 266.95-1.45Q269.41-1.49 270.4-2.12 271.38-2.74 271.38-4.35L271.38-4.35 271.38-26.13Q271.38-27.98 270.42-28.81 269.45-29.64 266.95-29.68L266.95-29.68 266.95-31.17Q267.75-31.13 268.6-31.09 269.45-31.05 270.3-31.05L270.3-31.05Q271.71-31.05 272.96-31.19 274.21-31.33 275.25-31.61L275.25-31.61 275.25-4.35Q275.25-2.7 276.24-2.1 277.23-1.49 279.69-1.45L279.69-1.45 279.69 0Q279.09-0.04 278.04-0.06 276.99-0.08 275.76-0.12 274.53-0.16 273.32-0.16L273.32-0.16Q271.5-0.16 269.67-0.1 267.84-0.04 266.95 0ZM282.31 0L282.31 0 282.31-1.45Q284.81-1.49 285.78-2.12 286.74-2.74 286.74-4.35L286.74-4.35 286.74-15.77Q286.74-17.62 285.78-18.43 284.81-19.23 282.31-19.31L282.31-19.31 282.31-20.77Q283.12-20.73 283.96-20.69 284.81-20.65 285.7-20.65L285.7-20.65Q287.11-20.65 288.36-20.79 289.61-20.93 290.66-21.21L290.66-21.21 290.66-4.35Q290.66-2.7 291.64-2.1 292.63-1.49 295.09-1.45L295.09-1.45 295.09 0Q294.49-0.04 293.44-0.06 292.39-0.08 291.16-0.12 289.93-0.16 288.72-0.16L288.72-0.16Q286.91-0.16 285.07-0.1 283.24-0.04 282.31 0ZM288.6-25.56L288.6-25.56Q287.51-25.56 286.7-26.33 285.9-27.1 285.9-28.27L285.9-28.27Q285.9-29.4 286.68-30.16 287.47-30.93 288.6-30.93L288.6-30.93Q289.69-30.93 290.49-30.16 291.3-29.4 291.3-28.27L291.3-28.27Q291.3-27.14 290.49-26.35 289.69-25.56 288.6-25.56ZM308.56 0.56L308.56 0.56Q305.65 0.56 303.5-0.75 301.34-2.06 300.17-4.52 299-6.98 299-10.32L299-10.32Q299-13.71 300.19-16.17 301.38-18.63 303.58-19.98 305.77-21.33 308.84-21.33L308.84-21.33Q311.46-21.33 313.35-20.32 315.25-19.31 316.28-17.16 317.31-15 317.23-11.53L317.23-11.53 301.58-11.53 301.54-12.98 313.19-12.98Q313.27-14.96 312.79-16.51 312.31-18.06 311.28-18.99 310.25-19.92 308.64-19.92L308.64-19.92Q306.58-19.92 305.03-18.15 303.48-16.37 303.19-12.62L303.19-12.62 303.27-12.54Q303.23-12.1 303.21-11.61 303.19-11.13 303.19-10.6L303.19-10.6Q303.19-6.29 304.85-3.93 306.5-1.57 309.64-1.57L309.64-1.57Q311.66-1.57 313.27-2.58 314.89-3.59 315.89-5.73L315.89-5.73 317.23-4.96Q316.18-2.38 313.9-0.91 311.62 0.56 308.56 0.56ZM333.76 0.4L332.34 0.4 324.88-16.69Q324.28-18.02 323.31-18.65 322.34-19.27 320.77-19.27L320.77-19.27 320.77-20.77Q322.02-20.69 323.19-20.65 324.36-20.6 326.01-20.6L326.01-20.6Q327.63-20.6 328.98-20.65 330.33-20.69 331.62-20.77L331.62-20.77 331.62-19.27Q329.56-19.23 329.06-18.53 328.55-17.82 329.32-16.09L329.32-16.09 334.52-4.15 333.92-3.95 337.75-13.47Q338.51-15.36 338.51-16.61 338.51-17.86 337.77-18.53 337.02-19.19 335.49-19.27L335.49-19.27 335.49-20.77Q336.62-20.73 337.38-20.71 338.15-20.69 338.86-20.67 339.56-20.65 340.37-20.65L340.37-20.65Q341.66-20.65 342.73-20.69 343.8-20.73 344.6-20.77L344.6-20.77 344.6-19.27Q342.99-19.19 341.86-18.15 340.73-17.1 339.8-14.8L339.8-14.8 333.76 0.4ZM357.95 0.56L357.95 0.56Q355.04 0.56 352.89-0.75 350.73-2.06 349.56-4.52 348.39-6.98 348.39-10.32L348.39-10.32Q348.39-13.71 349.58-16.17 350.77-18.63 352.97-19.98 355.16-21.33 358.23-21.33L358.23-21.33Q360.85-21.33 362.74-20.32 364.64-19.31 365.67-17.16 366.7-15 366.62-11.53L366.62-11.53 350.97-11.53 350.93-12.98 362.58-12.98Q362.66-14.96 362.18-16.51 361.7-18.06 360.67-18.99 359.64-19.92 358.03-19.92L358.03-19.92Q355.97-19.92 354.42-18.15 352.87-16.37 352.58-12.62L352.58-12.62 352.66-12.54Q352.62-12.1 352.6-11.61 352.58-11.13 352.58-10.6L352.58-10.6Q352.58-6.29 354.24-3.93 355.89-1.57 359.04-1.57L359.04-1.57Q361.05-1.57 362.66-2.58 364.28-3.59 365.29-5.73L365.29-5.73 366.62-4.96Q365.57-2.38 363.29-0.91 361.01 0.56 357.95 0.56ZM371.01 0L371.01 0 371.01-1.45Q373.55-1.53 374.5-2.16 375.44-2.78 375.44-4.35L375.44-4.35 375.44-15.77Q375.44-17.66 374.46-18.45 373.47-19.23 371.01-19.31L371.01-19.31 371.01-20.77Q371.86-20.73 372.68-20.69 373.51-20.65 374.44-20.65L374.44-20.65Q377.1-20.65 379.36-21.21L379.36-21.21 379.36-4.6Q379.36-2.9 380.61-2.22 381.86-1.53 384.88-1.45L384.88-1.45 384.88 0Q384.15-0.04 382.92-0.06 381.69-0.08 380.26-0.12 378.83-0.16 377.46-0.16L377.46-0.16Q375.52-0.16 373.73-0.1 371.94-0.04 371.01 0ZM386.98-14.31L386.98-14.31Q386.13-14.31 385.58-14.82 385.04-15.32 385.04-16.09L385.04-16.09Q385.04-16.61 385.26-17.04 385.48-17.46 385.69-17.84 385.89-18.23 385.89-18.59L385.89-18.59Q385.89-19.44 384.64-19.44L384.64-19.44Q383.67-19.44 382.58-18.93 381.49-18.43 380.58-17.62 379.68-16.81 379.23-15.77L379.23-15.77 379.11-17.34Q380.24-19.23 381.96-20.28 383.67-21.33 385.52-21.33L385.52-21.33Q387.42-21.33 388.51-20.28 389.6-19.23 389.6-17.46L389.6-17.46Q389.6-16.05 388.87-15.18 388.15-14.31 386.98-14.31ZM395.28 6.21L395.28 6.21 394.84 5.16Q396.97 4.48 398.08 3.29 399.19 2.1 399.19 0.77L399.19 0.77Q399.19-0.2 398.47-0.2L398.47-0.2Q398.1-0.2 397.62-0.02 397.13 0.16 396.53 0.16L396.53 0.16Q395.36 0.16 394.66-0.58 393.95-1.33 393.95-2.46L393.95-2.46Q393.95-3.75 394.86-4.58 395.76-5.4 397.18-5.4L397.18-5.4Q398.83-5.4 399.84-4.13 400.84-2.86 400.84-0.65L400.84-0.65Q400.84 1.94 399.41 3.65 397.98 5.36 395.28 6.21ZM414.31 0L414.31 0 414.31-1.45Q415.68-1.57 416.63-2.06 417.57-2.54 418.3-3.57 419.03-4.6 419.67-6.25L419.67-6.25 428.94-28.83 430.32-28.83 440.19-4.8Q440.92-2.98 442.03-2.26 443.14-1.53 445.23-1.45L445.23-1.45 445.23 0Q444.19-0.08 442.59-0.1 441-0.12 438.94-0.12L438.94-0.12Q436.61-0.12 434.87-0.1 433.14-0.08 432.17 0L432.17 0 432.17-1.45Q434.23-1.53 435.21-1.81 436.2-2.1 436.3-2.82 436.4-3.55 435.84-4.88L435.84-4.88 428.06-23.99 428.74-24.64 421.81-7.66Q420.92-5.48 420.98-4.15 421.04-2.82 422.13-2.2 423.22-1.57 425.48-1.45L425.48-1.45 425.48 0Q424.43-0.04 423.36-0.06 422.29-0.08 421.22-0.1 420.15-0.12 419.11-0.12L419.11-0.12Q417.94-0.12 416.77-0.1 415.6-0.08 414.31 0ZM435.84-9.96L421.89-9.96 422.53-11.41 435.32-11.41 435.84-9.96ZM458.1 0.56L458.1 0.56Q455.19 0.56 453.05-0.77 450.92-2.1 449.75-4.52 448.58-6.94 448.58-10.24L448.58-10.24Q448.58-13.67 449.79-16.15 451-18.63 453.24-19.98 455.47-21.33 458.5-21.33L458.5-21.33Q460.72-21.33 462.45-20.65 464.18-19.96 465.19-18.79 466.2-17.62 466.2-16.09L466.2-16.09Q466.2-14.76 465.39-13.89 464.59-13.02 463.3-13.02L463.3-13.02Q462.29-13.02 461.66-13.59 461.04-14.15 461.04-15L461.04-15Q461.04-15.77 461.38-16.33 461.72-16.9 462.07-17.4 462.41-17.9 462.41-18.39L462.41-18.39Q462.41-19.03 461.52-19.46 460.64-19.88 459.22-19.88L459.22-19.88Q456.12-19.88 454.45-17.52 452.77-15.16 452.77-10.73L452.77-10.73Q452.77-6.29 454.41-3.93 456.04-1.57 459.14-1.57L459.14-1.57Q461.16-1.57 462.69-2.62 464.22-3.67 465.19-5.73L465.19-5.73 466.52-4.96Q465.51-2.34 463.32-0.89 461.12 0.56 458.1 0.56ZM484.34 0L484.34 0 484.34-1.45Q486.12-1.53 486.76-2.16 487.41-2.78 487.41-4.35L487.41-4.35 487.41-13.95Q487.41-16.61 486.38-17.96 485.35-19.31 483.33-19.31L483.33-19.31Q481.68-19.31 480.25-18.41 478.82-17.5 477.77-15.73L477.77-15.73 477.81-17.38Q478.82-19.23 480.65-20.28 482.49-21.33 484.79-21.33L484.79-21.33Q487.93-21.33 489.62-19.33 491.32-17.34 491.32-13.63L491.32-13.63 491.32-4.35Q491.32-2.78 492.29-2.16 493.25-1.53 495.75-1.45L495.75-1.45 495.75 0Q495.15-0.04 494.1-0.06 493.05-0.08 491.82-0.12 490.59-0.16 489.42-0.16L489.42-0.16Q487.93-0.16 486.5-0.1 485.07-0.04 484.34 0ZM469.67 0L469.67 0 469.67-1.45Q472.17-1.53 473.13-2.16 474.1-2.78 474.1-4.35L474.1-4.35 474.1-26.13Q474.1-28.02 473.11-28.81 472.12-29.6 469.67-29.68L469.67-29.68 469.67-31.13Q470.47-31.09 471.32-31.05 472.17-31.01 473.05-31.01L473.05-31.01Q474.38-31.01 475.63-31.15 476.88-31.29 477.97-31.57L477.97-31.57 477.97-4.35Q477.97-2.78 478.64-2.16 479.3-1.53 481.04-1.45L481.04-1.45 481.04 0Q480.23-0.04 478.84-0.1 477.45-0.16 476-0.16L476-0.16Q474.34-0.16 472.55-0.1 470.75-0.04 469.67 0ZM498.05 0L498.05 0 498.05-1.45Q500.55-1.49 501.52-2.12 502.49-2.74 502.49-4.35L502.49-4.35 502.49-15.77Q502.49-17.62 501.52-18.43 500.55-19.23 498.05-19.31L498.05-19.31 498.05-20.77Q498.86-20.73 499.7-20.69 500.55-20.65 501.44-20.65L501.44-20.65Q502.85-20.65 504.1-20.79 505.35-20.93 506.4-21.21L506.4-21.21 506.4-4.35Q506.4-2.7 507.38-2.1 508.37-1.49 510.83-1.45L510.83-1.45 510.83 0Q510.23-0.04 509.18-0.06 508.13-0.08 506.9-0.12 505.67-0.16 504.46-0.16L504.46-0.16Q502.65-0.16 500.81-0.1 498.98-0.04 498.05 0ZM504.34-25.56L504.34-25.56Q503.25-25.56 502.45-26.33 501.64-27.1 501.64-28.27L501.64-28.27Q501.64-29.4 502.42-30.16 503.21-30.93 504.34-30.93L504.34-30.93Q505.43-30.93 506.24-30.16 507.04-29.4 507.04-28.27L507.04-28.27Q507.04-27.14 506.24-26.35 505.43-25.56 504.34-25.56ZM524.3 0.56L524.3 0.56Q521.39 0.56 519.24-0.75 517.08-2.06 515.91-4.52 514.74-6.98 514.74-10.32L514.74-10.32Q514.74-13.71 515.93-16.17 517.12-18.63 519.32-19.98 521.52-21.33 524.58-21.33L524.58-21.33Q527.2-21.33 529.1-20.32 530.99-19.31 532.02-17.16 533.05-15 532.97-11.53L532.97-11.53 517.32-11.53 517.28-12.98 528.93-12.98Q529.02-14.96 528.53-16.51 528.05-18.06 527.02-18.99 525.99-19.92 524.38-19.92L524.38-19.92Q522.32-19.92 520.77-18.15 519.22-16.37 518.93-12.62L518.93-12.62 519.02-12.54Q518.97-12.1 518.95-11.61 518.93-11.13 518.93-10.6L518.93-10.6Q518.93-6.29 520.59-3.93 522.24-1.57 525.39-1.57L525.39-1.57Q527.4-1.57 529.02-2.58 530.63-3.59 531.64-5.73L531.64-5.73 532.97-4.96Q531.92-2.38 529.64-0.91 527.36 0.56 524.3 0.56ZM549.5 0.4L548.09 0.4 540.63-16.69Q540.02-18.02 539.05-18.65 538.09-19.27 536.51-19.27L536.51-19.27 536.51-20.77Q537.76-20.69 538.93-20.65 540.1-20.6 541.75-20.6L541.75-20.6Q543.37-20.6 544.72-20.65 546.07-20.69 547.36-20.77L547.36-20.77 547.36-19.27Q545.3-19.23 544.8-18.53 544.29-17.82 545.06-16.09L545.06-16.09 550.26-4.15 549.66-3.95 553.49-13.47Q554.25-15.36 554.25-16.61 554.25-17.86 553.51-18.53 552.76-19.19 551.23-19.27L551.23-19.27 551.23-20.77Q552.36-20.73 553.13-20.71 553.89-20.69 554.6-20.67 555.3-20.65 556.11-20.65L556.11-20.65Q557.4-20.65 558.47-20.69 559.54-20.73 560.34-20.77L560.34-20.77 560.34-19.27Q558.73-19.19 557.6-18.15 556.47-17.1 555.54-14.8L555.54-14.8 549.5 0.4ZM573.69 0.56L573.69 0.56Q570.78 0.56 568.63-0.75 566.47-2.06 565.3-4.52 564.13-6.98 564.13-10.32L564.13-10.32Q564.13-13.71 565.32-16.17 566.51-18.63 568.71-19.98 570.91-21.33 573.97-21.33L573.97-21.33Q576.59-21.33 578.49-20.32 580.38-19.31 581.41-17.16 582.44-15 582.36-11.53L582.36-11.53 566.71-11.53 566.67-12.98 578.32-12.98Q578.41-14.96 577.92-16.51 577.44-18.06 576.41-18.99 575.38-19.92 573.77-19.92L573.77-19.92Q571.71-19.92 570.16-18.15 568.61-16.37 568.32-12.62L568.32-12.62 568.41-12.54Q568.36-12.1 568.34-11.61 568.32-11.13 568.32-10.6L568.32-10.6Q568.32-6.29 569.98-3.93 571.63-1.57 574.78-1.57L574.78-1.57Q576.79-1.57 578.41-2.58 580.02-3.59 581.03-5.73L581.03-5.73 582.36-4.96Q581.31-2.38 579.03-0.91 576.75 0.56 573.69 0.56ZM586.75 0L586.75 0 586.75-1.45Q589.29-1.53 590.24-2.16 591.18-2.78 591.18-4.35L591.18-4.35 591.18-15.77Q591.18-17.66 590.2-18.45 589.21-19.23 586.75-19.31L586.75-19.31 586.75-20.77Q587.6-20.73 588.42-20.69 589.25-20.65 590.18-20.65L590.18-20.65Q592.84-20.65 595.1-21.21L595.1-21.21 595.1-4.6Q595.1-2.9 596.35-2.22 597.6-1.53 600.62-1.45L600.62-1.45 600.62 0Q599.89-0.04 598.66-0.06 597.43-0.08 596-0.12 594.57-0.16 593.2-0.16L593.2-0.16Q591.27-0.16 589.47-0.1 587.68-0.04 586.75 0ZM602.72-14.31L602.72-14.31Q601.87-14.31 601.33-14.82 600.78-15.32 600.78-16.09L600.78-16.09Q600.78-16.61 601-17.04 601.23-17.46 601.43-17.84 601.63-18.23 601.63-18.59L601.63-18.59Q601.63-19.44 600.38-19.44L600.38-19.44Q599.41-19.44 598.32-18.93 597.23-18.43 596.33-17.62 595.42-16.81 594.98-15.77L594.98-15.77 594.85-17.34Q595.98-19.23 597.7-20.28 599.41-21.33 601.27-21.33L601.27-21.33Q603.16-21.33 604.25-20.28 605.34-19.23 605.34-17.46L605.34-17.46Q605.34-16.05 604.61-15.18 603.89-14.31 602.72-14.31Z" opacity="1" transform="matrix(1,0,0,1,0,0)" fill="#ffffff" class="slogan-text-1" data-fill-palette-color="secondary" id="text-1"></path></svg></g></svg></g></svg></g></svg></g><g transform="matrix(1,0,0,1,405.52967287504674,0)"><svg viewBox="0 0 111.73615681193625 106.71457602248846" height="106.71457602248846" width="111.73615681193625"><g><svg xmlns="http://www.w3.org/2000/svg" xmlns:xlink="http://www.w3.org/1999/xlink" version="1.1" x="0" y="0" viewBox="18.434779640266868 19.099999999999984 58.530440719466284 55.90000000000002" enable-background="new 0 0 95 95" xml:space="preserve" height="106.71457602248846" width="111.73615681193625" class="icon-icon-0" data-fill-palette-color="accent" id="icon-0"><path fill="#ffffff" d="M75.9 35.9c-0.8 0.9-1.9 1.3-3 1.2-0.1 0-0.1 0-0.1 0.1l-8.7 24 0 0v0c-0.3 0.8-1 1.4-1.9 1.4-0.4 0-0.6-0.1-1.1-0.3 0 0 0 0 0 0-2.9-1.8-7.8-3-13.4-3s-10.5 1.2-13.4 3c0 0 0 0 0 0-0.5 0.3-0.7 0.3-1.1 0.3-0.9 0-1.7-0.6-1.9-1.4v0l0 0-8.7-24c0-0.1-0.1-0.1-0.1-0.1-1.1 0-2.2-0.4-3-1.2-1.5-1.6-1.4-4.1 0.2-5.6 1.6-1.5 4.1-1.4 5.6 0.2 1.4 1.5 1.4 3.8 0.1 5.3 0 0 0 0.1 0 0.2l8.5 14.3c0.5 0.8 1.6 0.4 1.5-0.5l-2.3-20.1c0-0.1 0-0.1-0.1-0.1-1.1-0.3-2-1.2-2.5-2.3-0.7-1.9 0-4 1.8-4.9l0.2-0.1c0 0 0 0 0 0 0.1 0 0.2-0.1 0.2-0.1 0.5-0.2 1-0.3 1.6-0.3 0 0 0 0 0 0l0.3 0c1.4 0.1 2.7 1.1 3.3 2.5 0.6 1.6 0.2 3.3-1 4.4 0 0-0.1 0.1 0 0.1l5.2 17.8c0.3 1.1 1.9 0.9 2-0.2l1.9-19.8c0 0 0-0.1 0-0.1-1.3-0.8-2.1-2.2-1.9-3.9 0.2-1.9 1.8-3.5 3.8-3.6 0.1 0 0.2 0 0.3 0 0.1 0 0.2 0 0.3 0 2 0.1 3.6 1.7 3.8 3.6 0.2 1.6-0.7 3.1-1.9 3.9 0 0 0 0 0 0.1l1.9 19.8c0.1 1.1 1.6 1.2 2 0.2l5.2-17.8c0-0.1 0-0.1 0-0.1-1.2-1.1-1.7-2.8-1-4.4 0.6-1.4 1.9-2.3 3.3-2.5l0.3 0c0 0 0 0 0 0 0.5 0 1 0.1 1.6 0.3 0.1 0 0.2 0.1 0.2 0.1 0 0 0 0 0 0l0.2 0.1c1.7 0.9 2.5 3 1.8 4.9-0.5 1.2-1.4 2-2.5 2.3-0.1 0-0.1 0.1-0.1 0.1L60 49.7c-0.1 0.9 1.1 1.3 1.5 0.5L70 36c0-0.1 0-0.1 0-0.2-1.3-1.5-1.3-3.8 0.1-5.3 1.5-1.6 4-1.7 5.6-0.2C77.3 31.8 77.4 34.3 75.9 35.9zM61.1 65.9c-2.2-2.2-7.6-3.7-13.7-3.7-6.1 0-11.5 1.6-13.7 3.7-1 1 0.2 2.9 0.8 4.7 0.2 0.6 0.9 0.8 1.4 0.5 2.5-1.5 6.7-2.6 11.5-2.6 4.7 0 8.9 1 11.5 2.6 0.5 0.3 1.2 0.1 1.4-0.5C60.9 68.8 62.1 66.9 61.1 65.9zM47.5 54.1M54.1 73.1c0-1.1-3-1.9-6.6-1.9-3.7 0-6.6 0.9-6.6 1.9s3 1.9 6.6 1.9C51.1 75 54.1 74.1 54.1 73.1z" data-fill-palette-color="accent"></path></svg></g></svg></g></svg></g><defs></defs></svg><rect width="395.52" height="81.59779108926666" fill="none" stroke="none" visibility="hidden"></rect></g></svg></g></svg>